{
  "title" : "",
  "description" : "",
  "author" : "",
  "targetLoudness" : -18.0,
  "shouldApplyLoudnessNormalization" : true,
  "videoFormatFrameRate" : 30,
  "audioFormatSampleRate" : 44100,
  "allowSubFrameEditing" : false,
  "width" : 1920.0,
  "height" : 1080.0,
  "version" : "6.0",
  "editRate" : 705600000,
  "authoringClientName" :  {
    "name" : "Camtasia",
    "platform" : "Windows",
    "version" : "22.0"
  },
  "sourceBin" : [
    {
      "id" : 1,
      "src" : "Rec 2022-10-18-1-45-08-PM.trec",
      "rect" : [0, 0, 1689, 821],
      "lastMod" : "20221018T174508",
      "loudnessNormalization" : true,
      "sourceTracks" : [
        {
          "range" : [0, 1258],
          "type" : 0,
          "editRate" : 30,
          "trackRect" : [0, 0, 1689, 821],
          "sampleRate" : "145113/5000",
          "bitDepth" : 24,
          "numChannels" : 0,
          "integratedLUFS" : 100.0,
          "peakLevel" : -1.0,
          "metaData" : "Rec 2022-10-18-1-45-08-PM.trec;2b7b6a00-7a1f-11e2-83d0-0017f200be7f;2b7b6aef-7a1f-11e2-83d0-0017f200be7f;2b7b6af0-7a1f-11e2-83d0-0017f200be7f;2b7b6af1-7a1f-11e2-83d0-0017f200be7f;2b7b6af2-7a1f-11e2-83d0-0017f200be7f;2b7b6af3-7a1f-11e2-83d0-0017f200be7f;2b7b6af5-7a1f-11e2-83d0-0017f200be7f;2b7b6af6-7a1f-11e2-83d0-0017f200be7f;2b7b6af7-7a1f-11e2-83d0-0017f200be7f;2b7b6af8-7a1f-11e2-83d0-0017f200be7f;2b7b6af9-7a1f-11e2-83d0-0017f200be7f;2b7b6afa-7a1f-11e2-83d0-0017f200be7f;"
        }
      ],
      "metadata" : {
        "timeAdded" : "20221018T174509.185216"
      }
    },
    {
      "id" : 2,
      "src" : "Rec 2022-10-20-12-29-26-PM.trec",
      "rect" : [0, 0, 1584, 162],
      "lastMod" : "20221020T162926",
      "loudnessNormalization" : true,
      "sourceTracks" : [
        {
          "range" : [0, 676],
          "type" : 0,
          "editRate" : 30,
          "trackRect" : [0, 0, 1584, 162],
          "sampleRate" : "150003/5000",
          "bitDepth" : 24,
          "numChannels" : 0,
          "integratedLUFS" : 100.0,
          "peakLevel" : -1.0,
          "metaData" : "Rec 2022-10-20-12-29-26-PM.trec;2b7b6a00-7a1f-11e2-83d0-0017f200be7f;2b7b6aef-7a1f-11e2-83d0-0017f200be7f;2b7b6af0-7a1f-11e2-83d0-0017f200be7f;2b7b6af1-7a1f-11e2-83d0-0017f200be7f;2b7b6af2-7a1f-11e2-83d0-0017f200be7f;2b7b6af3-7a1f-11e2-83d0-0017f200be7f;2b7b6af5-7a1f-11e2-83d0-0017f200be7f;2b7b6af6-7a1f-11e2-83d0-0017f200be7f;2b7b6af7-7a1f-11e2-83d0-0017f200be7f;2b7b6af8-7a1f-11e2-83d0-0017f200be7f;2b7b6af9-7a1f-11e2-83d0-0017f200be7f;2b7b6afa-7a1f-11e2-83d0-0017f200be7f;"
        }
      ],
      "metadata" : {
        "timeAdded" : "20221020T162928.431640"
      }
    },
    {
      "id" : 3,
      "src" : "RelevanceTrailing.wav",
      "rect" : [0, 0, 0, 0],
      "lastMod" : "20221020T195630",
      "loudnessNormalization" : true,
      "sourceTracks" : [
        {
          "range" : [0, 789915],
          "type" : 2,
          "editRate" : 44100,
          "trackRect" : [0, 0, 0, 0],
          "sampleRate" : 44100,
          "bitDepth" : 16,
          "numChannels" : 1,
          "integratedLUFS" : -16.9917962568717,
          "peakLevel" : 0.670989990234375,
          "metaData" : ""
        }
      ],
      "metadata" : {
        "timeAdded" : "20221020T195707.815742"
      }
    },
    {
      "id" : 4,
      "src" : "ElementExample1.png",
      "rect" : [0, 0, 266, 45],
      "lastMod" : "20250209T210042",
      "loudnessNormalization" : true,
      "sourceTracks" : [
        {
          "range" : [0, 1],
          "type" : 1,
          "editRate" : 10000000,
          "trackRect" : [0, 0, 266, 45],
          "sampleRate" : 0,
          "bitDepth" : 32,
          "numChannels" : 0,
          "integratedLUFS" : 100.0,
          "peakLevel" : -1.0,
          "metaData" : ""
        }
      ],
      "metadata" : {
        "timeAdded" : "20250209T210554.523854"
      }
    },
    {
      "id" : 5,
      "src" : "ElementExample3.png",
      "rect" : [0, 0, 243, 33],
      "lastMod" : "20250209T210153",
      "loudnessNormalization" : true,
      "sourceTracks" : [
        {
          "range" : [0, 1],
          "type" : 1,
          "editRate" : 10000000,
          "trackRect" : [0, 0, 243, 33],
          "sampleRate" : 0,
          "bitDepth" : 32,
          "numChannels" : 0,
          "integratedLUFS" : 100.0,
          "peakLevel" : -1.0,
          "metaData" : ""
        }
      ],
      "metadata" : {
        "timeAdded" : "20250209T210554.524837"
      }
    },
    {
      "id" : 6,
      "src" : "ElementExample2.png",
      "rect" : [0, 0, 732, 36],
      "lastMod" : "20250209T210302",
      "loudnessNormalization" : true,
      "sourceTracks" : [
        {
          "range" : [0, 1],
          "type" : 1,
          "editRate" : 10000000,
          "trackRect" : [0, 0, 732, 36],
          "sampleRate" : 0,
          "bitDepth" : 32,
          "numChannels" : 0,
          "integratedLUFS" : 100.0,
          "peakLevel" : -1.0,
          "metaData" : ""
        }
      ],
      "metadata" : {
        "timeAdded" : "20250209T210348.300674"
      }
    },
    {
      "id" : 7,
      "src" : "Relevance(1).wav",
      "rect" : [0, 0, 0, 0],
      "lastMod" : "20250218T200320",
      "loudnessNormalization" : true,
      "sourceTracks" : [
        {
          "range" : [0, 2949888],
          "type" : 2,
          "editRate" : 44100,
          "trackRect" : [0, 0, 0, 0],
          "sampleRate" : 44100,
          "bitDepth" : 16,
          "numChannels" : 1,
          "integratedLUFS" : -20.9896909657528,
          "peakLevel" : 0.885711669921875,
          "metaData" : ""
        }
      ],
      "metadata" : {
        "timeAdded" : "20250220T182608.838222"
      }
    },
    {
      "id" : 8,
      "src" : "Slide3.PNG",
      "rect" : [0, 0, 1280, 720],
      "lastMod" : "20250220T183036",
      "loudnessNormalization" : true,
      "sourceTracks" : [
        {
          "range" : [0, 1],
          "type" : 1,
          "editRate" : 10000000,
          "trackRect" : [0, 0, 1280, 720],
          "sampleRate" : 0,
          "bitDepth" : 8,
          "numChannels" : 0,
          "integratedLUFS" : 100.0,
          "peakLevel" : -1.0,
          "metaData" : ""
        }
      ],
      "metadata" : {
        "timeAdded" : "20250220T183104.227985"
      }
    }
  ],
  "timeline" : {
    "id" : 9,
    "sceneTrack" : {
      "scenes" : [
        {
          "csml" : {
            "tracks" : [
              {
                "trackIndex" : 0,
                "medias" : [
                  {
                    "id" : 10,
                    "_type" : "AMFile",
                    "src" : 7,
                    "trackNumber" : 0,
                    "attributes" : {
                      "ident" : "Relevance",
                      "gain" : 1.0,
                      "mixToMono" : false,
                      "loudnessNormalization" : true,
                      "sourceFileOffset" : 0
                    },
                      "channelNumber" : "0",
                    "effects" : [

                    ],
                    "start" : 0,
                    "duration" : 47181120000,
                    "mediaStart" : 0,
                    "mediaDuration" : 47181120000,
                    "scalar" : 1,
                    "metadata" : {
                      "clipSpeedAttribute" : false
                    },
                    "animationTracks" : {

                    }
                  }
                ]
              },
              {
                "trackIndex" : 1,
                "medias" : [
                  {
                    "id" : 11,
                    "_type" : "IMFile",
                    "src" : 8,
                    "trackNumber" : 0,
                    "trimStartSum" : -17207447296,
                    "attributes" : {
                      "ident" : "Slide3"
                    },
                    "parameters" : {
                      "sourceCrop0" : {
                        "type" : "double",
                        "defaultValue" : 0.0,
                        "interp" : "eioe"
                      },
                      "sourceCrop1" : {
                        "type" : "double",
                        "defaultValue" : 0.0,
                        "interp" : "eioe"
                      },
                      "sourceCrop2" : {
                        "type" : "double",
                        "defaultValue" : 0.0,
                        "interp" : "eioe"
                      },
                      "sourceCrop3" : {
                        "type" : "double",
                        "defaultValue" : 0.0,
                        "interp" : "eioe"
                      },
                      "geometryCrop0" : {
                        "type" : "double",
                        "defaultValue" : 0.0,
                        "interp" : "eioe"
                      },
                      "geometryCrop1" : {
                        "type" : "double",
                        "defaultValue" : 0.0,
                        "interp" : "eioe"
                      },
                      "geometryCrop2" : {
                        "type" : "double",
                        "defaultValue" : 0.0,
                        "interp" : "eioe"
                      },
                      "geometryCrop3" : {
                        "type" : "double",
                        "defaultValue" : 0.0,
                        "interp" : "eioe"
                      }
                    },
                    "effects" : [

                    ],
                    "start" : -4294967296,
                    "duration" : 51476087296,
                    "mediaStart" : 0,
                    "mediaDuration" : 1,
                    "scalar" : 1,
                    "metadata" : {
                      "clipSpeedAttribute" : false,
                      "default-height" : 720.0,
                      "default-translation0" : 0.0,
                      "default-translation1" : 0.0,
                      "default-translation2" : 0.0,
                      "default-width" : 1280.0
                    },
                    "animationTracks" : {

                    }
                  }
                ]
              },
              {
                "trackIndex" : 2,
                "medias" : [
                  {
                    "id" : 12,
                    "_type" : "Callout",
                    "def" : {
                      "kind" : "remix",
                      "shape" : "arrow",
                      "style" : "basic",
                      "stroke-color-blue" : 0.0235294117647059,
                      "stroke-color-green" : 0.0235294117647059,
                      "stroke-color-opacity" : 1.0,
                      "stroke-color-red" : 0.968627450980392,
                      "stroke-width" : 8.0,
                      "tail-x" : {
                        "type" : "double",
                        "defaultValue" : 1036.0,
                        "interp" : "eioe"
                      },
                      "tail-y" : {
                        "type" : "double",
                        "defaultValue" : 0.0,
                        "interp" : "eioe"
                      },
                      "shape-anchor" : "none",
                      "shape-tail" : "none",
                      "stroke-style" : "solid"
                    },
                    "attributes" : {
                      "ident" : "",
                      "autoRotateText" : true
                    },
                    "parameters" : {
                      "translation0" : -556.666666666667,
                      "translation1" : 117.333333333333,
                      "sourceCrop0" : 0.0,
                      "sourceCrop1" : 0.0,
                      "sourceCrop2" : 0.0,
                      "sourceCrop3" : 0.0,
                      "geometryCrop0" : 0.0,
                      "geometryCrop1" : 0.0,
                      "geometryCrop2" : 0.0,
                      "geometryCrop3" : 0.0
                    },
                    "effects" : [

                    ],
                    "start" : 0,
                    "duration" : 4351200000,
                    "mediaStart" : 0,
                    "mediaDuration" : 4351200000,
                    "scalar" : 1,
                    "metadata" : {
                      "clipSpeedAttribute" : false,
                      "default-height" : 8.0,
                      "default-stroke-color-green" : 0.674509803921569,
                      "default-tail-x" : 100.0,
                      "default-tail-y" : 0.0,
                      "default-translation0" : 0.0,
                      "default-translation1" : 0.0,
                      "default-translation2" : 0.0,
                      "default-width" : 100.0
                    },
                    "animationTracks" : {

                    }
                  },
                  {
                    "id" : 13,
                    "_type" : "Callout",
                    "def" : {
                      "kind" : "remix",
                      "shape" : "arrow",
                      "style" : "basic",
                      "stroke-color-blue" : {
                        "type" : "double",
                        "defaultValue" : 0.0235294117647059,
                        "interp" : "linr"
                      },
                      "stroke-color-green" : {
                        "type" : "double",
                        "defaultValue" : 0.0235294117647059,
                        "interp" : "linr"
                      },
                      "stroke-color-opacity" : {
                        "type" : "double",
                        "defaultValue" : 1.0,
                        "interp" : "linr"
                      },
                      "stroke-color-red" : {
                        "type" : "double",
                        "defaultValue" : 0.968627450980392,
                        "interp" : "linr"
                      },
                      "stroke-width" : {
                        "type" : "double",
                        "defaultValue" : 8.0,
                        "interp" : "linr"
                      },
                      "tail-x" : {
                        "type" : "double",
                        "defaultValue" : 1093.33333333333,
                        "interp" : "eioe"
                      },
                      "tail-y" : {
                        "type" : "double",
                        "defaultValue" : 0.0,
                        "interp" : "eioe"
                      },
                      "shape-anchor" : "none",
                      "shape-tail" : "none",
                      "stroke-style" : "solid"
                    },
                    "attributes" : {
                      "ident" : "",
                      "autoRotateText" : true
                    },
                    "parameters" : {
                      "translation0" : {
                        "type" : "double",
                        "defaultValue" : -559.333333333333,
                        "interp" : "eioe"
                      },
                      "translation1" : {
                        "type" : "double",
                        "defaultValue" : 82.6666666666667,
                        "interp" : "eioe"
                      },
                      "sourceCrop0" : {
                        "type" : "double",
                        "defaultValue" : 0.0,
                        "interp" : "eioe"
                      },
                      "sourceCrop1" : {
                        "type" : "double",
                        "defaultValue" : 0.0,
                        "interp" : "eioe"
                      },
                      "sourceCrop2" : {
                        "type" : "double",
                        "defaultValue" : 0.0,
                        "interp" : "eioe"
                      },
                      "sourceCrop3" : {
                        "type" : "double",
                        "defaultValue" : 0.0,
                        "interp" : "eioe"
                      },
                      "geometryCrop0" : {
                        "type" : "double",
                        "defaultValue" : 0.0,
                        "interp" : "eioe"
                      },
                      "geometryCrop1" : {
                        "type" : "double",
                        "defaultValue" : 0.0,
                        "interp" : "eioe"
                      },
                      "geometryCrop2" : {
                        "type" : "double",
                        "defaultValue" : 0.0,
                        "interp" : "eioe"
                      },
                      "geometryCrop3" : {
                        "type" : "double",
                        "defaultValue" : 0.0,
                        "interp" : "eioe"
                      }
                    },
                    "effects" : [

                    ],
                    "start" : 4351200000,
                    "duration" : 1999200000,
                    "mediaStart" : 0,
                    "mediaDuration" : 1999200000,
                    "scalar" : 1,
                    "metadata" : {
                      "clipSpeedAttribute" : false,
                      "default-height" : 8.0,
                      "default-stroke-color-green" : 0.674509803921569,
                      "default-tail-x" : 100.0,
                      "default-tail-y" : 0.0,
                      "default-translation0" : 0.0,
                      "default-translation1" : 0.0,
                      "default-translation2" : 0.0,
                      "default-width" : 100.0
                    },
                    "animationTracks" : {

                    }
                  },
                  {
                    "id" : 14,
                    "_type" : "Callout",
                    "def" : {
                      "kind" : "remix",
                      "shape" : "arrow",
                      "style" : "basic",
                      "stroke-color-blue" : {
                        "type" : "double",
                        "defaultValue" : 0.0235294117647059,
                        "interp" : "linr"
                      },
                      "stroke-color-green" : {
                        "type" : "double",
                        "defaultValue" : 0.0235294117647059,
                        "interp" : "linr"
                      },
                      "stroke-color-opacity" : {
                        "type" : "double",
                        "defaultValue" : 1.0,
                        "interp" : "linr"
                      },
                      "stroke-color-red" : {
                        "type" : "double",
                        "defaultValue" : 0.968627450980392,
                        "interp" : "linr"
                      },
                      "stroke-width" : {
                        "type" : "double",
                        "defaultValue" : 8.0,
                        "interp" : "linr"
                      },
                      "tail-x" : {
                        "type" : "double",
                        "defaultValue" : 342.666666666667,
                        "interp" : "eioe"
                      },
                      "tail-y" : {
                        "type" : "double",
                        "defaultValue" : 1.33333333333333,
                        "interp" : "eioe"
                      },
                      "shape-anchor" : "none",
                      "shape-tail" : "none",
                      "stroke-style" : "solid"
                    },
                    "attributes" : {
                      "ident" : "",
                      "autoRotateText" : true
                    },
                    "parameters" : {
                      "translation0" : {
                        "type" : "double",
                        "defaultValue" : -563.333333333333,
                        "interp" : "eioe"
                      },
                      "translation1" : {
                        "type" : "double",
                        "defaultValue" : 48.0,
                        "interp" : "eioe"
                      },
                      "sourceCrop0" : {
                        "type" : "double",
                        "defaultValue" : 0.0,
                        "interp" : "eioe"
                      },
                      "sourceCrop1" : {
                        "type" : "double",
                        "defaultValue" : 0.0,
                        "interp" : "eioe"
                      },
                      "sourceCrop2" : {
                        "type" : "double",
                        "defaultValue" : 0.0,
                        "interp" : "eioe"
                      },
                      "sourceCrop3" : {
                        "type" : "double",
                        "defaultValue" : 0.0,
                        "interp" : "eioe"
                      },
                      "geometryCrop0" : {
                        "type" : "double",
                        "defaultValue" : 0.0,
                        "interp" : "eioe"
                      },
                      "geometryCrop1" : {
                        "type" : "double",
                        "defaultValue" : 0.0,
                        "interp" : "eioe"
                      },
                      "geometryCrop2" : {
                        "type" : "double",
                        "defaultValue" : 0.0,
                        "interp" : "eioe"
                      },
                      "geometryCrop3" : {
                        "type" : "double",
                        "defaultValue" : 0.0,
                        "interp" : "eioe"
                      }
                    },
                    "effects" : [

                    ],
                    "start" : 6350400000,
                    "duration" : 2022720000,
                    "mediaStart" : -423360000,
                    "mediaDuration" : 2022720000,
                    "scalar" : 1,
                    "metadata" : {
                      "clipSpeedAttribute" : false,
                      "default-height" : 8.0,
                      "default-stroke-color-green" : 0.674509803921569,
                      "default-tail-x" : 100.0,
                      "default-tail-y" : 0.0,
                      "default-translation0" : 0.0,
                      "default-translation1" : 0.0,
                      "default-translation2" : 0.0,
                      "default-width" : 100.0
                    },
                    "animationTracks" : {

                    }
                  },
                  {
                    "id" : 15,
                    "_type" : "Callout",
                    "def" : {
                      "kind" : "remix",
                      "shape" : "arrow",
                      "style" : "basic",
                      "stroke-color-blue" : {
                        "type" : "double",
                        "defaultValue" : 0.0235294117647059,
                        "interp" : "linr"
                      },
                      "stroke-color-green" : {
                        "type" : "double",
                        "defaultValue" : 0.0235294117647059,
                        "interp" : "linr"
                      },
                      "stroke-color-opacity" : {
                        "type" : "double",
                        "defaultValue" : 1.0,
                        "interp" : "linr"
                      },
                      "stroke-color-red" : {
                        "type" : "double",
                        "defaultValue" : 0.968627450980392,
                        "interp" : "linr"
                      },
                      "stroke-width" : {
                        "type" : "double",
                        "defaultValue" : 8.0,
                        "interp" : "linr"
                      },
                      "tail-x" : {
                        "type" : "double",
                        "defaultValue" : 1122.66666666667,
                        "interp" : "eioe"
                      },
                      "tail-y" : {
                        "type" : "double",
                        "defaultValue" : 0.0,
                        "interp" : "eioe"
                      },
                      "shape-anchor" : "none",
                      "shape-tail" : "none",
                      "stroke-style" : "solid"
                    },
                    "attributes" : {
                      "ident" : "",
                      "autoRotateText" : true
                    },
                    "parameters" : {
                      "translation0" : {
                        "type" : "double",
                        "defaultValue" : -556.666666666667,
                        "interp" : "eioe"
                      },
                      "sourceCrop0" : {
                        "type" : "double",
                        "defaultValue" : 0.0,
                        "interp" : "eioe"
                      },
                      "sourceCrop1" : {
                        "type" : "double",
                        "defaultValue" : 0.0,
                        "interp" : "eioe"
                      },
                      "sourceCrop2" : {
                        "type" : "double",
                        "defaultValue" : 0.0,
                        "interp" : "eioe"
                      },
                      "sourceCrop3" : {
                        "type" : "double",
                        "defaultValue" : 0.0,
                        "interp" : "eioe"
                      },
                      "geometryCrop0" : {
                        "type" : "double",
                        "defaultValue" : 0.0,
                        "interp" : "eioe"
                      },
                      "geometryCrop1" : {
                        "type" : "double",
                        "defaultValue" : 0.0,
                        "interp" : "eioe"
                      },
                      "geometryCrop2" : {
                        "type" : "double",
                        "defaultValue" : 0.0,
                        "interp" : "eioe"
                      },
                      "geometryCrop3" : {
                        "type" : "double",
                        "defaultValue" : 0.0,
                        "interp" : "eioe"
                      }
                    },
                    "effects" : [

                    ],
                    "start" : 8373120000,
                    "duration" : 2775360000,
                    "mediaStart" : 564480000,
                    "mediaDuration" : 2775360000,
                    "scalar" : 1,
                    "metadata" : {
                      "clipSpeedAttribute" : false,
                      "default-height" : 8.0,
                      "default-stroke-color-green" : 0.674509803921569,
                      "default-tail-x" : 100.0,
                      "default-tail-y" : 0.0,
                      "default-translation0" : 0.0,
                      "default-translation1" : 0.0,
                      "default-translation2" : 0.0,
                      "default-width" : 100.0
                    },
                    "animationTracks" : {

                    }
                  },
                  {
                    "id" : 16,
                    "_type" : "Callout",
                    "def" : {
                      "kind" : "remix",
                      "shape" : "arrow",
                      "style" : "basic",
                      "stroke-color-blue" : {
                        "type" : "double",
                        "defaultValue" : 0.0235294117647059,
                        "interp" : "linr"
                      },
                      "stroke-color-green" : {
                        "type" : "double",
                        "defaultValue" : 0.0235294117647059,
                        "interp" : "linr"
                      },
                      "stroke-color-opacity" : {
                        "type" : "double",
                        "defaultValue" : 1.0,
                        "interp" : "linr"
                      },
                      "stroke-color-red" : {
                        "type" : "double",
                        "defaultValue" : 0.968627450980392,
                        "interp" : "linr"
                      },
                      "stroke-width" : {
                        "type" : "double",
                        "defaultValue" : 8.0,
                        "interp" : "linr"
                      },
                      "tail-x" : {
                        "type" : "double",
                        "defaultValue" : 977.333333333333,
                        "interp" : "eioe"
                      },
                      "tail-y" : {
                        "type" : "double",
                        "defaultValue" : 0.0,
                        "interp" : "eioe"
                      },
                      "shape-anchor" : "none",
                      "shape-tail" : "none",
                      "stroke-style" : "solid"
                    },
                    "attributes" : {
                      "ident" : "",
                      "autoRotateText" : true
                    },
                    "parameters" : {
                      "translation0" : {
                        "type" : "double",
                        "defaultValue" : -558.0,
                        "interp" : "eioe"
                      },
                      "translation1" : {
                        "type" : "double",
                        "defaultValue" : -33.3333333333333,
                        "interp" : "eioe"
                      },
                      "sourceCrop0" : {
                        "type" : "double",
                        "defaultValue" : 0.0,
                        "interp" : "eioe"
                      },
                      "sourceCrop1" : {
                        "type" : "double",
                        "defaultValue" : 0.0,
                        "interp" : "eioe"
                      },
                      "sourceCrop2" : {
                        "type" : "double",
                        "defaultValue" : 0.0,
                        "interp" : "eioe"
                      },
                      "sourceCrop3" : {
                        "type" : "double",
                        "defaultValue" : 0.0,
                        "interp" : "eioe"
                      },
                      "geometryCrop0" : {
                        "type" : "double",
                        "defaultValue" : 0.0,
                        "interp" : "eioe"
                      },
                      "geometryCrop1" : {
                        "type" : "double",
                        "defaultValue" : 0.0,
                        "interp" : "eioe"
                      },
                      "geometryCrop2" : {
                        "type" : "double",
                        "defaultValue" : 0.0,
                        "interp" : "eioe"
                      },
                      "geometryCrop3" : {
                        "type" : "double",
                        "defaultValue" : 0.0,
                        "interp" : "eioe"
                      }
                    },
                    "effects" : [

                    ],
                    "start" : 11148480000,
                    "duration" : 3716160000,
                    "mediaStart" : 0,
                    "mediaDuration" : 3716160000,
                    "scalar" : 1,
                    "metadata" : {
                      "clipSpeedAttribute" : false,
                      "default-height" : 8.0,
                      "default-stroke-color-green" : 0.674509803921569,
                      "default-tail-x" : 100.0,
                      "default-tail-y" : 0.0,
                      "default-translation0" : 0.0,
                      "default-translation1" : 0.0,
                      "default-translation2" : 0.0,
                      "default-width" : 100.0
                    },
                    "animationTracks" : {

                    }
                  },
                  {
                    "id" : 17,
                    "_type" : "Callout",
                    "def" : {
                      "kind" : "remix",
                      "shape" : "arrow",
                      "style" : "basic",
                      "stroke-color-blue" : {
                        "type" : "double",
                        "defaultValue" : 0.0235294117647059,
                        "interp" : "linr"
                      },
                      "stroke-color-green" : {
                        "type" : "double",
                        "defaultValue" : 0.0235294117647059,
                        "interp" : "linr"
                      },
                      "stroke-color-opacity" : {
                        "type" : "double",
                        "defaultValue" : 1.0,
                        "interp" : "linr"
                      },
                      "stroke-color-red" : {
                        "type" : "double",
                        "defaultValue" : 0.968627450980392,
                        "interp" : "linr"
                      },
                      "stroke-width" : {
                        "type" : "double",
                        "defaultValue" : 8.0,
                        "interp" : "linr"
                      },
                      "tail-x" : {
                        "type" : "double",
                        "defaultValue" : 1025.33333333333,
                        "interp" : "eioe"
                      },
                      "tail-y" : {
                        "type" : "double",
                        "defaultValue" : 1.33333333333333,
                        "interp" : "eioe"
                      },
                      "shape-anchor" : "none",
                      "shape-tail" : "none",
                      "stroke-style" : "solid"
                    },
                    "attributes" : {
                      "ident" : "",
                      "autoRotateText" : true
                    },
                    "parameters" : {
                      "translation0" : {
                        "type" : "double",
                        "defaultValue" : -554.0,
                        "interp" : "eioe"
                      },
                      "translation1" : {
                        "type" : "double",
                        "defaultValue" : -68.0,
                        "interp" : "eioe"
                      },
                      "sourceCrop0" : {
                        "type" : "double",
                        "defaultValue" : 0.0,
                        "interp" : "eioe"
                      },
                      "sourceCrop1" : {
                        "type" : "double",
                        "defaultValue" : 0.0,
                        "interp" : "eioe"
                      },
                      "sourceCrop2" : {
                        "type" : "double",
                        "defaultValue" : 0.0,
                        "interp" : "eioe"
                      },
                      "sourceCrop3" : {
                        "type" : "double",
                        "defaultValue" : 0.0,
                        "interp" : "eioe"
                      },
                      "geometryCrop0" : {
                        "type" : "double",
                        "defaultValue" : 0.0,
                        "interp" : "eioe"
                      },
                      "geometryCrop1" : {
                        "type" : "double",
                        "defaultValue" : 0.0,
                        "interp" : "eioe"
                      },
                      "geometryCrop2" : {
                        "type" : "double",
                        "defaultValue" : 0.0,
                        "interp" : "eioe"
                      },
                      "geometryCrop3" : {
                        "type" : "double",
                        "defaultValue" : 0.0,
                        "interp" : "eioe"
                      }
                    },
                    "effects" : [

                    ],
                    "start" : 14864640000,
                    "duration" : 2963520000,
                    "mediaStart" : 0,
                    "mediaDuration" : 2963520000,
                    "scalar" : 1,
                    "metadata" : {
                      "clipSpeedAttribute" : false,
                      "default-height" : 8.0,
                      "default-stroke-color-green" : 0.674509803921569,
                      "default-tail-x" : 100.0,
                      "default-tail-y" : 0.0,
                      "default-translation0" : 0.0,
                      "default-translation1" : 0.0,
                      "default-translation2" : 0.0,
                      "default-width" : 100.0
                    },
                    "animationTracks" : {

                    }
                  },
                  {
                    "id" : 18,
                    "_type" : "Callout",
                    "def" : {
                      "kind" : "remix",
                      "shape" : "arrow",
                      "style" : "basic",
                      "stroke-color-blue" : {
                        "type" : "double",
                        "defaultValue" : 0.0235294117647059,
                        "interp" : "linr"
                      },
                      "stroke-color-green" : {
                        "type" : "double",
                        "defaultValue" : 0.0235294117647059,
                        "interp" : "linr"
                      },
                      "stroke-color-opacity" : {
                        "type" : "double",
                        "defaultValue" : 1.0,
                        "interp" : "linr"
                      },
                      "stroke-color-red" : {
                        "type" : "double",
                        "defaultValue" : 0.968627450980392,
                        "interp" : "linr"
                      },
                      "stroke-width" : {
                        "type" : "double",
                        "defaultValue" : 8.0,
                        "interp" : "linr"
                      },
                      "tail-x" : {
                        "type" : "double",
                        "defaultValue" : 1074.66666666667,
                        "interp" : "eioe"
                      },
                      "tail-y" : {
                        "type" : "double",
                        "defaultValue" : 1.33333333333333,
                        "interp" : "eioe"
                      },
                      "shape-anchor" : "none",
                      "shape-tail" : "none",
                      "stroke-style" : "solid"
                    },
                    "attributes" : {
                      "ident" : "",
                      "autoRotateText" : true
                    },
                    "parameters" : {
                      "translation0" : {
                        "type" : "double",
                        "defaultValue" : -556.666666666667,
                        "interp" : "eioe"
                      },
                      "translation1" : {
                        "type" : "double",
                        "defaultValue" : -105.333333333333,
                        "interp" : "eioe"
                      },
                      "sourceCrop0" : {
                        "type" : "double",
                        "defaultValue" : 0.0,
                        "interp" : "eioe"
                      },
                      "sourceCrop1" : {
                        "type" : "double",
                        "defaultValue" : 0.0,
                        "interp" : "eioe"
                      },
                      "sourceCrop2" : {
                        "type" : "double",
                        "defaultValue" : 0.0,
                        "interp" : "eioe"
                      },
                      "sourceCrop3" : {
                        "type" : "double",
                        "defaultValue" : 0.0,
                        "interp" : "eioe"
                      },
                      "geometryCrop0" : {
                        "type" : "double",
                        "defaultValue" : 0.0,
                        "interp" : "eioe"
                      },
                      "geometryCrop1" : {
                        "type" : "double",
                        "defaultValue" : 0.0,
                        "interp" : "eioe"
                      },
                      "geometryCrop2" : {
                        "type" : "double",
                        "defaultValue" : 0.0,
                        "interp" : "eioe"
                      },
                      "geometryCrop3" : {
                        "type" : "double",
                        "defaultValue" : 0.0,
                        "interp" : "eioe"
                      }
                    },
                    "effects" : [

                    ],
                    "start" : 17828160000,
                    "duration" : 3292800000,
                    "mediaStart" : 446880000,
                    "mediaDuration" : 3292800000,
                    "scalar" : 1,
                    "metadata" : {
                      "clipSpeedAttribute" : false,
                      "default-height" : 8.0,
                      "default-stroke-color-green" : 0.674509803921569,
                      "default-tail-x" : 100.0,
                      "default-tail-y" : 0.0,
                      "default-translation0" : 0.0,
                      "default-translation1" : 0.0,
                      "default-translation2" : 0.0,
                      "default-width" : 100.0
                    },
                    "animationTracks" : {

                    }
                  },
                  {
                    "id" : 19,
                    "_type" : "Callout",
                    "def" : {
                      "kind" : "remix",
                      "shape" : "arrow",
                      "style" : "basic",
                      "stroke-color-blue" : {
                        "type" : "double",
                        "defaultValue" : 0.0235294117647059,
                        "interp" : "linr"
                      },
                      "stroke-color-green" : {
                        "type" : "double",
                        "defaultValue" : 0.0235294117647059,
                        "interp" : "linr"
                      },
                      "stroke-color-opacity" : {
                        "type" : "double",
                        "defaultValue" : 1.0,
                        "interp" : "linr"
                      },
                      "stroke-color-red" : {
                        "type" : "double",
                        "defaultValue" : 0.968627450980392,
                        "interp" : "linr"
                      },
                      "stroke-width" : {
                        "type" : "double",
                        "defaultValue" : 8.0,
                        "interp" : "linr"
                      },
                      "tail-x" : {
                        "type" : "double",
                        "defaultValue" : 1116.0,
                        "interp" : "eioe"
                      },
                      "tail-y" : {
                        "type" : "double",
                        "defaultValue" : 2.66666666666667,
                        "interp" : "eioe"
                      },
                      "shape-anchor" : "none",
                      "shape-tail" : "none",
                      "stroke-style" : "solid"
                    },
                    "attributes" : {
                      "ident" : "",
                      "autoRotateText" : true
                    },
                    "parameters" : {
                      "translation0" : {
                        "type" : "double",
                        "defaultValue" : -556.666666666667,
                        "interp" : "eioe"
                      },
                      "translation1" : {
                        "type" : "double",
                        "defaultValue" : -138.666666666667,
                        "interp" : "eioe"
                      },
                      "sourceCrop0" : {
                        "type" : "double",
                        "defaultValue" : 0.0,
                        "interp" : "eioe"
                      },
                      "sourceCrop1" : {
                        "type" : "double",
                        "defaultValue" : 0.0,
                        "interp" : "eioe"
                      },
                      "sourceCrop2" : {
                        "type" : "double",
                        "defaultValue" : 0.0,
                        "interp" : "eioe"
                      },
                      "sourceCrop3" : {
                        "type" : "double",
                        "defaultValue" : 0.0,
                        "interp" : "eioe"
                      },
                      "geometryCrop0" : {
                        "type" : "double",
                        "defaultValue" : 0.0,
                        "interp" : "eioe"
                      },
                      "geometryCrop1" : {
                        "type" : "double",
                        "defaultValue" : 0.0,
                        "interp" : "eioe"
                      },
                      "geometryCrop2" : {
                        "type" : "double",
                        "defaultValue" : 0.0,
                        "interp" : "eioe"
                      },
                      "geometryCrop3" : {
                        "type" : "double",
                        "defaultValue" : 0.0,
                        "interp" : "eioe"
                      }
                    },
                    "effects" : [

                    ],
                    "start" : 21120960000,
                    "duration" : 4139520000,
                    "mediaStart" : 446880000,
                    "mediaDuration" : 4139520000,
                    "scalar" : 1,
                    "metadata" : {
                      "clipSpeedAttribute" : false,
                      "default-height" : 8.0,
                      "default-stroke-color-green" : 0.674509803921569,
                      "default-tail-x" : 100.0,
                      "default-tail-y" : 0.0,
                      "default-translation0" : 0.0,
                      "default-translation1" : 0.0,
                      "default-translation2" : 0.0,
                      "default-width" : 100.0
                    },
                    "animationTracks" : {

                    }
                  },
                  {
                    "id" : 20,
                    "_type" : "Callout",
                    "def" : {
                      "kind" : "remix",
                      "shape" : "arrow",
                      "style" : "basic",
                      "stroke-color-blue" : {
                        "type" : "double",
                        "defaultValue" : 0.0235294117647059,
                        "interp" : "linr"
                      },
                      "stroke-color-green" : {
                        "type" : "double",
                        "defaultValue" : 0.0235294117647059,
                        "interp" : "linr"
                      },
                      "stroke-color-opacity" : {
                        "type" : "double",
                        "defaultValue" : 1.0,
                        "interp" : "linr"
                      },
                      "stroke-color-red" : {
                        "type" : "double",
                        "defaultValue" : 0.968627450980392,
                        "interp" : "linr"
                      },
                      "stroke-width" : {
                        "type" : "double",
                        "defaultValue" : 8.0,
                        "interp" : "linr"
                      },
                      "tail-x" : {
                        "type" : "double",
                        "defaultValue" : 782.666666666667,
                        "interp" : "eioe"
                      },
                      "tail-y" : {
                        "type" : "double",
                        "defaultValue" : 2.66666666666667,
                        "interp" : "eioe"
                      },
                      "shape-anchor" : "none",
                      "shape-tail" : "none",
                      "stroke-style" : "solid"
                    },
                    "attributes" : {
                      "ident" : "",
                      "autoRotateText" : true
                    },
                    "parameters" : {
                      "translation0" : {
                        "type" : "double",
                        "defaultValue" : -560.666666666667,
                        "interp" : "eioe"
                      },
                      "translation1" : {
                        "type" : "double",
                        "defaultValue" : -174.666666666667,
                        "interp" : "eioe"
                      },
                      "sourceCrop0" : {
                        "type" : "double",
                        "defaultValue" : 0.0,
                        "interp" : "eioe"
                      },
                      "sourceCrop1" : {
                        "type" : "double",
                        "defaultValue" : 0.0,
                        "interp" : "eioe"
                      },
                      "sourceCrop2" : {
                        "type" : "double",
                        "defaultValue" : 0.0,
                        "interp" : "eioe"
                      },
                      "sourceCrop3" : {
                        "type" : "double",
                        "defaultValue" : 0.0,
                        "interp" : "eioe"
                      },
                      "geometryCrop0" : {
                        "type" : "double",
                        "defaultValue" : 0.0,
                        "interp" : "eioe"
                      },
                      "geometryCrop1" : {
                        "type" : "double",
                        "defaultValue" : 0.0,
                        "interp" : "eioe"
                      },
                      "geometryCrop2" : {
                        "type" : "double",
                        "defaultValue" : 0.0,
                        "interp" : "eioe"
                      },
                      "geometryCrop3" : {
                        "type" : "double",
                        "defaultValue" : 0.0,
                        "interp" : "eioe"
                      }
                    },
                    "effects" : [

                    ],
                    "start" : 25260480000,
                    "duration" : 3598560000,
                    "mediaStart" : 0,
                    "mediaDuration" : 3598560000,
                    "scalar" : 1,
                    "metadata" : {
                      "clipSpeedAttribute" : false,
                      "default-height" : 8.0,
                      "default-stroke-color-green" : 0.674509803921569,
                      "default-tail-x" : 100.0,
                      "default-tail-y" : 0.0,
                      "default-translation0" : 0.0,
                      "default-translation1" : 0.0,
                      "default-translation2" : 0.0,
                      "default-width" : 100.0
                    },
                    "animationTracks" : {

                    }
                  },
                  {
                    "id" : 21,
                    "_type" : "Callout",
                    "def" : {
                      "kind" : "remix",
                      "shape" : "shape-rectangle",
                      "style" : "basic",
                      "fill-color-blue" : 1.0,
                      "fill-color-green" : 1.0,
                      "fill-color-opacity" : 1.0,
                      "fill-color-red" : 1.0,
                      "height" : 525.484848484849,
                      "stroke-color-blue" : 1.0,
                      "stroke-color-green" : 1.0,
                      "stroke-color-opacity" : 1.0,
                      "stroke-color-red" : 1.0,
                      "stroke-width" : 0.0,
                      "width" : 1238.18181818182,
                      "fill-style" : "solid",
                      "stroke-style" : "solid"
                    },
                    "attributes" : {
                      "ident" : "",
                      "autoRotateText" : true
                    },
                    "parameters" : {
                      "translation0" : 20.909090909091,
                      "translation1" : -97.2575757575758,
                      "sourceCrop0" : 0.0,
                      "sourceCrop1" : 0.0,
                      "sourceCrop2" : 0.0,
                      "sourceCrop3" : 0.0,
                      "geometryCrop0" : 0.0,
                      "geometryCrop1" : 0.0,
                      "geometryCrop2" : 0.0,
                      "geometryCrop3" : 0.0
                    },
                    "effects" : [

                    ],
                    "start" : 29447040000,
                    "duration" : 17734080000,
                    "mediaStart" : 0,
                    "mediaDuration" : 17734080000,
                    "scalar" : 1,
                    "metadata" : {
                      "clipSpeedAttribute" : false,
                      "default-anchor0" : 0.0,
                      "default-anchor1" : 0.0,
                      "default-anchor2" : 0.0,
                      "default-fill-color-opacity" : 1.0,
                      "default-height" : 180.0,
                      "default-rotation0" : 0.0,
                      "default-rotation1" : 0.0,
                      "default-rotation2" : 0.0,
                      "default-scale0" : 1.0,
                      "default-scale1" : 1.0,
                      "default-scale2" : 1.0,
                      "default-shear0" : 0.0,
                      "default-shear1" : 0.0,
                      "default-shear2" : 0.0,
                      "default-translation0" : 0.0,
                      "default-translation1" : 0.0,
                      "default-translation2" : 0.0,
                      "default-width" : 240.0
                    },
                    "animationTracks" : {

                    }
                  }
                ],
                "transitions" : [
                  {
                    "name" : "Fade",
                    "duration" : 705600000,
                    "rightMedia" : 12,
                    "attributes" : {
                      "bypass" : false,
                      "reverse" : false,
                      "trivial" : false,
                      "useAudioPreRoll" : true,
                      "useVisualPreRoll" : true
                    }

                  },
                  {
                    "name" : "Fade",
                    "duration" : 352800000,
                    "leftMedia" : 12,
                    "rightMedia" : 13,
                    "attributes" : {
                      "bypass" : false,
                      "reverse" : false,
                      "trivial" : false,
                      "useAudioPreRoll" : true,
                      "useVisualPreRoll" : true
                    }

                  },
                  {
                    "name" : "Fade",
                    "duration" : 352800000,
                    "leftMedia" : 13,
                    "rightMedia" : 14,
                    "attributes" : {
                      "bypass" : false,
                      "reverse" : false,
                      "trivial" : false,
                      "useAudioPreRoll" : true,
                      "useVisualPreRoll" : true
                    }

                  },
                  {
                    "name" : "Fade",
                    "duration" : 352800000,
                    "leftMedia" : 14,
                    "rightMedia" : 15,
                    "attributes" : {
                      "bypass" : false,
                      "reverse" : false,
                      "trivial" : false,
                      "useAudioPreRoll" : true,
                      "useVisualPreRoll" : true
                    }

                  },
                  {
                    "name" : "Fade",
                    "duration" : 352800000,
                    "leftMedia" : 15,
                    "rightMedia" : 16,
                    "attributes" : {
                      "bypass" : false,
                      "reverse" : false,
                      "trivial" : false,
                      "useAudioPreRoll" : true,
                      "useVisualPreRoll" : true
                    }

                  },
                  {
                    "name" : "Fade",
                    "duration" : 352800000,
                    "leftMedia" : 16,
                    "rightMedia" : 17,
                    "attributes" : {
                      "bypass" : false,
                      "reverse" : false,
                      "trivial" : false,
                      "useAudioPreRoll" : true,
                      "useVisualPreRoll" : true
                    }

                  },
                  {
                    "name" : "Fade",
                    "duration" : 352800000,
                    "leftMedia" : 17,
                    "rightMedia" : 18,
                    "attributes" : {
                      "bypass" : false,
                      "reverse" : false,
                      "trivial" : false,
                      "useAudioPreRoll" : true,
                      "useVisualPreRoll" : true
                    }

                  },
                  {
                    "name" : "Fade",
                    "duration" : 352800000,
                    "leftMedia" : 18,
                    "rightMedia" : 19,
                    "attributes" : {
                      "bypass" : false,
                      "reverse" : false,
                      "trivial" : false,
                      "useAudioPreRoll" : true,
                      "useVisualPreRoll" : true
                    }

                  },
                  {
                    "name" : "Fade",
                    "duration" : 352800000,
                    "leftMedia" : 19,
                    "rightMedia" : 20,
                    "attributes" : {
                      "bypass" : false,
                      "reverse" : false,
                      "trivial" : false,
                      "useAudioPreRoll" : true,
                      "useVisualPreRoll" : true
                    }

                  },
                  {
                    "name" : "Fade",
                    "duration" : 705600000,
                    "leftMedia" : 20,
                    "attributes" : {
                      "bypass" : false,
                      "reverse" : false,
                      "trivial" : false,
                      "useAudioPreRoll" : true,
                      "useVisualPreRoll" : true
                    }

                  },
                  {
                    "name" : "Fade",
                    "duration" : 705600000,
                    "rightMedia" : 21,
                    "attributes" : {
                      "bypass" : false,
                      "reverse" : false,
                      "trivial" : false,
                      "useAudioPreRoll" : true,
                      "useVisualPreRoll" : true
                    }

                  }
                ]
              },
              {
                "trackIndex" : 3,
                "medias" : [
                  {
                    "id" : 22,
                    "_type" : "ScreenVMFile",
                    "src" : 2,
                    "trackNumber" : 0,
                    "attributes" : {
                      "ident" : "Rec 2022-10-20-12-29-26-PM"
                    },
                    "parameters" : {
                      "translation1" : {
                        "type" : "double",
                        "defaultValue" : -175.822314049587,
                        "interp" : "eioe"
                      },
                      "scale0" : {
                        "type" : "double",
                        "defaultValue" : 0.755280073461892,
                        "interp" : "eioe"
                      },
                      "scale1" : {
                        "type" : "double",
                        "defaultValue" : 0.755280073461892,
                        "interp" : "eioe"
                      },
                      "sourceCrop0" : {
                        "type" : "double",
                        "defaultValue" : 0.0,
                        "interp" : "eioe"
                      },
                      "sourceCrop1" : {
                        "type" : "double",
                        "defaultValue" : 0.0,
                        "interp" : "eioe"
                      },
                      "sourceCrop2" : {
                        "type" : "double",
                        "defaultValue" : 0.0,
                        "interp" : "eioe"
                      },
                      "sourceCrop3" : {
                        "type" : "double",
                        "defaultValue" : 0.0,
                        "interp" : "eioe"
                      },
                      "geometryCrop0" : {
                        "type" : "double",
                        "defaultValue" : 0.0,
                        "interp" : "eioe"
                      },
                      "geometryCrop1" : {
                        "type" : "double",
                        "defaultValue" : 0.0,
                        "interp" : "eioe"
                      },
                      "geometryCrop2" : {
                        "type" : "double",
                        "defaultValue" : 0.0,
                        "interp" : "eioe"
                      },
                      "geometryCrop3" : {
                        "type" : "double",
                        "defaultValue" : 0.0,
                        "interp" : "eioe"
                      },
                      "cursorScale" : {
                        "type" : "double",
                        "defaultValue" : 2.25,
                        "interp" : "linr"
                      },
                      "cursorOpacity" : {
                        "type" : "double",
                        "defaultValue" : 1.0,
                        "interp" : "linr"
                      }
                    },
                    "effects" : [

                    ],
                    "start" : 29447040000,
                    "duration" : 14582400000,
                    "mediaStart" : 0,
                    "mediaDuration" : 14582400000,
                    "scalar" : 1,
                    "metadata" : {
                      "AutoAppliedSmartFocus" : "False",
                      "clipSpeedAttribute" : false,
                      "default-anchor0" : 0.0,
                      "default-anchor1" : 0.0,
                      "default-anchor2" : 0.0,
                      "default-height" : 162.0,
                      "default-rotation0" : 0.0,
                      "default-rotation1" : 0.0,
                      "default-rotation2" : 0.0,
                      "default-scale0" : 1.0,
                      "default-scale1" : 1.0,
                      "default-scale2" : 1.0,
                      "default-shear0" : 0.0,
                      "default-shear1" : 0.0,
                      "default-shear2" : 0.0,
                      "default-translation0" : 0.0,
                      "default-translation1" : 0.0,
                      "default-translation2" : 0.0,
                      "default-width" : 1584.0
                    },
                    "animationTracks" : {

                    }
                  }
                ],
                "transitions" : [
                  {
                    "name" : "Fade",
                    "duration" : 705600000,
                    "rightMedia" : 22,
                    "attributes" : {
                      "bypass" : false,
                      "reverse" : false,
                      "trivial" : false,
                      "useAudioPreRoll" : true,
                      "useVisualPreRoll" : true
                    }

                  },
                  {
                    "name" : "Fade",
                    "duration" : 705600000,
                    "leftMedia" : 22,
                    "attributes" : {
                      "bypass" : false,
                      "reverse" : false,
                      "trivial" : false,
                      "useAudioPreRoll" : true,
                      "useVisualPreRoll" : true
                    }

                  }
                ]
              },
              {
                "trackIndex" : 4,
                "medias" : [
                  {
                    "id" : 23,
                    "_type" : "Callout",
                    "def" : {
                      "kind" : "TypeWinSVG",
                      "shape" : "",
                      "style" : "",
                      "DrawTime" : 1.0,
                      "borderColorBlue" : 0.63921568627451,
                      "borderColorGreen" : 0.0313725490196078,
                      "borderColorRed" : 0.0313725490196078,
                      "borderWidth" : 5.0,
                      "enable-ligatures" : 0.0,
                      "flipOnXAxis" : 0.0,
                      "flipOnYAxis" : 0.0,
                      "height" : 270.0,
                      "width" : 480.0,
                      "filename" : "C:\\Users\\Sotirios\\AppData\\Local\\TechSmith\\Camtasia Studio\\22.0\\Features\\Tools\\Annotations\\Defaults\\anim_drawnoval.svg",
                      "name" : "",
                      "resize-behavior" : "resizeCallout",
                      "xmlContent" : "﻿<?xml version=\"1.0\" encoding=\"utf-8\"?>\n<!-- Generator: Adobe Illustrator 13.0.2, SVG Export Plug-In . SVG Version: 6.00 Build 14948)  -->\n<!DOCTYPE svg PUBLIC \"-//W3C//DTD SVG 1.1//EN\" \"http://www.w3.org/Graphics/SVG/1.1/DTD/svg11.dtd\">\n<svg version=\"1.1\" id=\"Layer_1\" xmlns=\"http://www.w3.org/2000/svg\" xmlns:xlink=\"http://www.w3.org/1999/xlink\" x=\"0px\" y=\"0px\"\n\t width=\"299.75px\" height=\"214.496px\" viewBox=\"0 0 299.75 214.496\" enable-background=\"new 0 0 299.75 214.496\"\n\t xml:space=\"preserve\">\n<path fill=\"none\" d=\"M142.383,0.35c-26-3-55,14-74,24c-69,38-104,133-16,172c54,24,119,23,175,4c40-13,83-43,70-91\n\tc-25-95-141-116-224-99\"/>\n</svg>\n"
                    },
                    "attributes" : {
                      "ident" : "",
                      "autoRotateText" : true
                    },
                    "parameters" : {
                      "translation0" : -328.080808080808,
                      "translation1" : -130.502525252525,
                      "scale0" : 0.342592592592593,
                      "scale1" : 0.224485596707819,
                      "sourceCrop0" : 0.0,
                      "sourceCrop1" : 0.0,
                      "sourceCrop2" : 0.0,
                      "sourceCrop3" : 0.0,
                      "geometryCrop0" : 0.0,
                      "geometryCrop1" : 0.0,
                      "geometryCrop2" : 0.0,
                      "geometryCrop3" : 0.0
                    },
                    "leftEdgeMods" : [
                      {
                        "group" : "DrawPercentageFade",
                        "duration" : 705600000,
                        "parameters" : [
                          {
                            "name" : "DrawTime",
                              "func" : "FadeInFunc"
                            }
                        ]
                      }
                    ],
                    "effects" : [

                    ],
                    "start" : 29988000000,
                    "duration" : 14041440000,
                    "mediaStart" : 0,
                    "mediaDuration" : 14041440000,
                    "scalar" : 1,
                    "metadata" : {
                      "clipSpeedAttribute" : false,
                      "default-anchor0" : 0.0,
                      "default-anchor1" : 0.0,
                      "default-anchor2" : 0.0,
                      "default-height" : 270.0,
                      "default-rotation0" : 0.0,
                      "default-rotation1" : 0.0,
                      "default-rotation2" : 0.0,
                      "default-scale0" : 1.0,
                      "default-scale1" : 1.0,
                      "default-scale2" : 1.0,
                      "default-shear0" : 0.0,
                      "default-shear1" : 0.0,
                      "default-shear2" : 0.0,
                      "default-stroke-color-blue" : 0.0,
                      "default-stroke-color-green" : 0.0,
                      "default-stroke-color-red" : 1.0,
                      "default-translation0" : 0.0,
                      "default-translation1" : 0.0,
                      "default-translation2" : 0.0,
                      "default-width" : 480.0
                    },
                    "animationTracks" : {

                    }
                  }
                ],
                "transitions" : [
                  {
                    "name" : "Fade",
                    "duration" : 352800000,
                    "rightMedia" : 23,
                    "attributes" : {
                      "bypass" : false,
                      "reverse" : false,
                      "trivial" : false,
                      "useAudioPreRoll" : true,
                      "useVisualPreRoll" : true
                    }

                  },
                  {
                    "name" : "Fade",
                    "duration" : 705600000,
                    "leftMedia" : 23,
                    "attributes" : {
                      "bypass" : false,
                      "reverse" : false,
                      "trivial" : false,
                      "useAudioPreRoll" : true,
                      "useVisualPreRoll" : true
                    }

                  }
                ]
              },
              {
                "trackIndex" : 5,
                "medias" : [
                  {
                    "id" : 24,
                    "_type" : "Callout",
                    "def" : {
                      "kind" : "TypeWinSVG",
                      "shape" : "",
                      "style" : "",
                      "DrawTime" : 1.0,
                      "borderColorBlue" : 0.63921568627451,
                      "borderColorGreen" : 0.0313725490196078,
                      "borderColorRed" : 0.0313725490196078,
                      "borderWidth" : 5.0,
                      "enable-ligatures" : 0.0,
                      "flipOnXAxis" : 0.0,
                      "flipOnYAxis" : 0.0,
                      "height" : 270.0,
                      "width" : 480.0,
                      "filename" : "C:\\Users\\Sotirios\\AppData\\Local\\TechSmith\\Camtasia Studio\\22.0\\Features\\Tools\\Annotations\\Defaults\\anim_arrow.svg",
                      "name" : "",
                      "resize-behavior" : "resizeCallout",
                      "xmlContent" : "﻿<?xml version=\"1.0\" encoding=\"utf-8\"?>\n<!-- Generator: Adobe Illustrator 13.0.2, SVG Export Plug-In . SVG Version: 6.00 Build 14948)  -->\n<!DOCTYPE svg PUBLIC \"-//W3C//DTD SVG 1.1//EN\" \"http://www.w3.org/Graphics/SVG/1.1/DTD/svg11.dtd\">\n<svg version=\"1.1\" id=\"Layer_1\" xmlns=\"http://www.w3.org/2000/svg\" xmlns:xlink=\"http://www.w3.org/1999/xlink\" x=\"0px\" y=\"0px\"\n\t width=\"151.268px\" height=\"53px\" viewBox=\"0 0 151.268 53\" enable-background=\"new 0 0 151.268 53\" xml:space=\"preserve\">\n<path fill=\"none\" d=\"M12.852,24.926c0,0,85.25-8.838,118.688-2.996\"/>\n<path fill=\"none\" d=\"M93.169,2.713c0,0,46.52,8.657,49.944,18.729c3.424,10.071-43.753,26.022-43.753,26.022\"/>\n</svg>\n"
                    },
                    "attributes" : {
                      "ident" : "",
                      "autoRotateText" : true
                    },
                    "parameters" : {
                      "translation0" : -353.325164160335,
                      "translation1" : 28.8436638434937,
                      "rotation2" : 1.75868926018433,
                      "shear0" : -5.90087308347055e-16,
                      "scale0" : 0.484955606445783,
                      "scale1" : 0.378734023778404,
                      "sourceCrop0" : 0.0,
                      "sourceCrop1" : 0.0,
                      "sourceCrop2" : 0.0,
                      "sourceCrop3" : 0.0,
                      "geometryCrop0" : 0.0,
                      "geometryCrop1" : 0.0,
                      "geometryCrop2" : 0.0,
                      "geometryCrop3" : 0.0
                    },
                    "leftEdgeMods" : [
                      {
                        "group" : "DrawPercentageFade",
                        "duration" : 705600000,
                        "parameters" : [
                          {
                            "name" : "DrawTime",
                              "func" : "FadeInFunc"
                            }
                        ]
                      }
                    ],
                    "effects" : [

                    ],
                    "start" : 31352160000,
                    "duration" : 12677280000,
                    "mediaStart" : 352800000,
                    "mediaDuration" : 12677280000,
                    "scalar" : 1,
                    "metadata" : {
                      "clipSpeedAttribute" : false,
                      "default-anchor0" : 0.0,
                      "default-anchor1" : 0.0,
                      "default-anchor2" : 0.0,
                      "default-height" : 270.0,
                      "default-rotation0" : 0.0,
                      "default-rotation1" : 0.0,
                      "default-rotation2" : 0.0,
                      "default-scale0" : 1.0,
                      "default-scale1" : 1.0,
                      "default-scale2" : 1.0,
                      "default-shear0" : 0.0,
                      "default-shear1" : 0.0,
                      "default-shear2" : 0.0,
                      "default-stroke-color-blue" : 0.0,
                      "default-stroke-color-green" : 0.0,
                      "default-stroke-color-red" : 1.0,
                      "default-translation0" : 0.0,
                      "default-translation1" : 0.0,
                      "default-translation2" : 0.0,
                      "default-width" : 480.0
                    },
                    "animationTracks" : {

                    }
                  }
                ],
                "transitions" : [
                  {
                    "name" : "Fade",
                    "duration" : 705600000,
                    "leftMedia" : 24,
                    "attributes" : {
                      "bypass" : false,
                      "reverse" : false,
                      "trivial" : false,
                      "useAudioPreRoll" : true,
                      "useVisualPreRoll" : true
                    }

                  }
                ]
              },
              {
                "trackIndex" : 6,
                "medias" : [
                  {
                    "id" : 25,
                    "_type" : "IMFile",
                    "src" : 6,
                    "trackNumber" : 0,
                    "trimStartSum" : 0,
                    "attributes" : {
                      "ident" : "ElementExample2"
                    },
                    "parameters" : {
                      "translation0" : -185.166314934994,
                      "translation1" : 169.185552865038,
                      "scale0" : 1.2,
                      "scale1" : 1.2,
                      "sourceCrop0" : 0.0,
                      "sourceCrop1" : 0.0,
                      "sourceCrop2" : 0.0,
                      "sourceCrop3" : 0.0,
                      "geometryCrop0" : 0.0,
                      "geometryCrop1" : 0.0,
                      "geometryCrop2" : 0.0,
                      "geometryCrop3" : 0.0
                    },
                    "effects" : [

                    ],
                    "start" : 31657920000,
                    "duration" : 12371520000,
                    "mediaStart" : 0,
                    "mediaDuration" : 1,
                    "scalar" : 1,
                    "metadata" : {
                      "clipSpeedAttribute" : false,
                      "default-anchor0" : 0.0,
                      "default-anchor1" : 0.0,
                      "default-anchor2" : 0.0,
                      "default-height" : 46.0,
                      "default-rotation0" : 0.0,
                      "default-rotation1" : 0.0,
                      "default-rotation2" : 0.0,
                      "default-scale0" : 1.0,
                      "default-scale1" : 1.0,
                      "default-scale2" : 1.0,
                      "default-shear0" : 0.0,
                      "default-shear1" : 0.0,
                      "default-shear2" : 0.0,
                      "default-translation0" : -0.5,
                      "default-translation1" : 0.0,
                      "default-translation2" : 0.0,
                      "default-width" : 525.0
                    },
                    "animationTracks" : {

                    }
                  }
                ],
                "transitions" : [
                  {
                    "name" : "Fade",
                    "duration" : 705600000,
                    "rightMedia" : 25,
                    "attributes" : {
                      "bypass" : false,
                      "reverse" : false,
                      "trivial" : false,
                      "useAudioPreRoll" : true,
                      "useVisualPreRoll" : true
                    }

                  },
                  {
                    "name" : "Fade",
                    "duration" : 705600000,
                    "leftMedia" : 25,
                    "attributes" : {
                      "bypass" : false,
                      "reverse" : false,
                      "trivial" : false,
                      "useAudioPreRoll" : true,
                      "useVisualPreRoll" : true
                    }

                  }
                ]
              },
              {
                "trackIndex" : 7,
                "medias" : [
                  {
                    "id" : 26,
                    "_type" : "Callout",
                    "def" : {
                      "kind" : "TypeWinSVG",
                      "shape" : "",
                      "style" : "",
                      "DrawTime" : 1.0,
                      "borderColorBlue" : 0.63921568627451,
                      "borderColorGreen" : 0.0313725490196078,
                      "borderColorRed" : 0.0313725490196078,
                      "borderWidth" : 5.0,
                      "enable-ligatures" : 0.0,
                      "flipOnXAxis" : 0.0,
                      "flipOnYAxis" : 0.0,
                      "height" : 270.0,
                      "width" : 480.0,
                      "filename" : "C:\\Users\\Sotirios\\AppData\\Local\\TechSmith\\Camtasia Studio\\22.0\\Features\\Tools\\Annotations\\Defaults\\anim_arrow.svg",
                      "name" : "",
                      "resize-behavior" : "resizeCallout",
                      "xmlContent" : "﻿<?xml version=\"1.0\" encoding=\"utf-8\"?>\n<!-- Generator: Adobe Illustrator 13.0.2, SVG Export Plug-In . SVG Version: 6.00 Build 14948)  -->\n<!DOCTYPE svg PUBLIC \"-//W3C//DTD SVG 1.1//EN\" \"http://www.w3.org/Graphics/SVG/1.1/DTD/svg11.dtd\">\n<svg version=\"1.1\" id=\"Layer_1\" xmlns=\"http://www.w3.org/2000/svg\" xmlns:xlink=\"http://www.w3.org/1999/xlink\" x=\"0px\" y=\"0px\"\n\t width=\"151.268px\" height=\"53px\" viewBox=\"0 0 151.268 53\" enable-background=\"new 0 0 151.268 53\" xml:space=\"preserve\">\n<path fill=\"none\" d=\"M12.852,24.926c0,0,85.25-8.838,118.688-2.996\"/>\n<path fill=\"none\" d=\"M93.169,2.713c0,0,46.52,8.657,49.944,18.729c3.424,10.071-43.753,26.022-43.753,26.022\"/>\n</svg>\n"
                    },
                    "attributes" : {
                      "ident" : "",
                      "autoRotateText" : true
                    },
                    "parameters" : {
                      "translation0" : -127.535177669517,
                      "translation1" : -28.2197962587151,
                      "rotation2" : 0.686368321084121,
                      "shear0" : -4.13061115842939e-16,
                      "scale0" : 0.484955606445783,
                      "scale1" : 0.378734023778404,
                      "sourceCrop0" : 0.0,
                      "sourceCrop1" : 0.0,
                      "sourceCrop2" : 0.0,
                      "sourceCrop3" : 0.0,
                      "geometryCrop0" : 0.0,
                      "geometryCrop1" : 0.0,
                      "geometryCrop2" : 0.0,
                      "geometryCrop3" : 0.0
                    },
                    "leftEdgeMods" : [
                      {
                        "group" : "DrawPercentageFade",
                        "duration" : 705600000,
                        "parameters" : [
                          {
                            "name" : "DrawTime",
                              "func" : "FadeInFunc"
                            }
                        ]
                      }
                    ],
                    "effects" : [

                    ],
                    "start" : 31963680000,
                    "duration" : 12065760000,
                    "mediaStart" : 0,
                    "mediaDuration" : 12065760000,
                    "scalar" : 1,
                    "metadata" : {
                      "clipSpeedAttribute" : false,
                      "default-anchor0" : 0.0,
                      "default-anchor1" : 0.0,
                      "default-anchor2" : 0.0,
                      "default-height" : 270.0,
                      "default-rotation0" : 0.0,
                      "default-rotation1" : 0.0,
                      "default-rotation2" : 0.0,
                      "default-scale0" : 1.0,
                      "default-scale1" : 1.0,
                      "default-scale2" : 1.0,
                      "default-shear0" : 0.0,
                      "default-shear1" : 0.0,
                      "default-shear2" : 0.0,
                      "default-stroke-color-blue" : 0.0,
                      "default-stroke-color-green" : 0.0,
                      "default-stroke-color-red" : 1.0,
                      "default-translation0" : 0.0,
                      "default-translation1" : 0.0,
                      "default-translation2" : 0.0,
                      "default-width" : 480.0
                    },
                    "animationTracks" : {

                    }
                  }
                ],
                "transitions" : [
                  {
                    "name" : "Fade",
                    "duration" : 705600000,
                    "leftMedia" : 26,
                    "attributes" : {
                      "bypass" : false,
                      "reverse" : false,
                      "trivial" : false,
                      "useAudioPreRoll" : true,
                      "useVisualPreRoll" : true
                    }

                  }
                ]
              },
              {
                "trackIndex" : 8,
                "medias" : [
                  {
                    "id" : 27,
                    "_type" : "IMFile",
                    "src" : 4,
                    "trackNumber" : 0,
                    "trimStartSum" : 0,
                    "attributes" : {
                      "ident" : "ElementExample1"
                    },
                    "parameters" : {
                      "translation0" : 98.1118034389398,
                      "translation1" : 79.167176109954,
                      "scale0" : 1.2,
                      "scale1" : 1.2,
                      "sourceCrop0" : 0.0,
                      "sourceCrop1" : 0.0,
                      "sourceCrop2" : 0.0,
                      "sourceCrop3" : 0.0,
                      "geometryCrop0" : 0.0,
                      "geometryCrop1" : 0.0,
                      "geometryCrop2" : 0.0,
                      "geometryCrop3" : 0.0
                    },
                    "effects" : [

                    ],
                    "start" : 32292960000,
                    "duration" : 11736480000,
                    "mediaStart" : 0,
                    "mediaDuration" : 1,
                    "scalar" : 1,
                    "metadata" : {
                      "clipSpeedAttribute" : false,
                      "default-anchor0" : 0.0,
                      "default-anchor1" : 0.0,
                      "default-anchor2" : 0.0,
                      "default-height" : 45.0,
                      "default-rotation0" : 0.0,
                      "default-rotation1" : 0.0,
                      "default-rotation2" : 0.0,
                      "default-scale0" : 1.0,
                      "default-scale1" : 1.0,
                      "default-scale2" : 1.0,
                      "default-shear0" : 0.0,
                      "default-shear1" : 0.0,
                      "default-shear2" : 0.0,
                      "default-translation0" : 0.0,
                      "default-translation1" : -0.5,
                      "default-translation2" : 0.0,
                      "default-width" : 266.0
                    },
                    "animationTracks" : {

                    }
                  }
                ],
                "transitions" : [
                  {
                    "name" : "Fade",
                    "duration" : 705600000,
                    "rightMedia" : 27,
                    "attributes" : {
                      "bypass" : false,
                      "reverse" : false,
                      "trivial" : false,
                      "useAudioPreRoll" : true,
                      "useVisualPreRoll" : true
                    }

                  },
                  {
                    "name" : "Fade",
                    "duration" : 705600000,
                    "leftMedia" : 27,
                    "attributes" : {
                      "bypass" : false,
                      "reverse" : false,
                      "trivial" : false,
                      "useAudioPreRoll" : true,
                      "useVisualPreRoll" : true
                    }

                  }
                ]
              },
              {
                "trackIndex" : 9,
                "medias" : [
                  {
                    "id" : 28,
                    "_type" : "Callout",
                    "def" : {
                      "kind" : "TypeWinSVG",
                      "shape" : "",
                      "style" : "",
                      "DrawTime" : 1.0,
                      "borderColorBlue" : 0.63921568627451,
                      "borderColorGreen" : 0.0313725490196078,
                      "borderColorRed" : 0.0313725490196078,
                      "borderWidth" : 5.0,
                      "enable-ligatures" : 0.0,
                      "flipOnXAxis" : 0.0,
                      "flipOnYAxis" : 0.0,
                      "height" : 270.0,
                      "width" : 480.0,
                      "filename" : "C:\\Users\\Sotirios\\AppData\\Local\\TechSmith\\Camtasia Studio\\22.0\\Features\\Tools\\Annotations\\Defaults\\anim_arrow.svg",
                      "name" : "",
                      "resize-behavior" : "resizeCallout",
                      "xmlContent" : "﻿<?xml version=\"1.0\" encoding=\"utf-8\"?>\n<!-- Generator: Adobe Illustrator 13.0.2, SVG Export Plug-In . SVG Version: 6.00 Build 14948)  -->\n<!DOCTYPE svg PUBLIC \"-//W3C//DTD SVG 1.1//EN\" \"http://www.w3.org/Graphics/SVG/1.1/DTD/svg11.dtd\">\n<svg version=\"1.1\" id=\"Layer_1\" xmlns=\"http://www.w3.org/2000/svg\" xmlns:xlink=\"http://www.w3.org/1999/xlink\" x=\"0px\" y=\"0px\"\n\t width=\"151.268px\" height=\"53px\" viewBox=\"0 0 151.268 53\" enable-background=\"new 0 0 151.268 53\" xml:space=\"preserve\">\n<path fill=\"none\" d=\"M12.852,24.926c0,0,85.25-8.838,118.688-2.996\"/>\n<path fill=\"none\" d=\"M93.169,2.713c0,0,46.52,8.657,49.944,18.729c3.424,10.071-43.753,26.022-43.753,26.022\"/>\n</svg>\n"
                    },
                    "attributes" : {
                      "ident" : "",
                      "autoRotateText" : true
                    },
                    "parameters" : {
                      "translation0" : -24.586010613388,
                      "translation1" : -95.0475974375102,
                      "rotation2" : 0.133193711346632,
                      "shear0" : -4.81421018777222e-16,
                      "scale0" : 0.646519455848677,
                      "scale1" : 0.378734023778404,
                      "sourceCrop0" : 0.0,
                      "sourceCrop1" : 0.0,
                      "sourceCrop2" : 0.0,
                      "sourceCrop3" : 0.0,
                      "geometryCrop0" : 0.0,
                      "geometryCrop1" : 0.0,
                      "geometryCrop2" : 0.0,
                      "geometryCrop3" : 0.0
                    },
                    "leftEdgeMods" : [
                      {
                        "group" : "DrawPercentageFade",
                        "duration" : 705600000,
                        "parameters" : [
                          {
                            "name" : "DrawTime",
                              "func" : "FadeInFunc"
                            }
                        ]
                      }
                    ],
                    "effects" : [

                    ],
                    "start" : 32645760000,
                    "duration" : 11383680000,
                    "mediaStart" : 352800000,
                    "mediaDuration" : 11383680000,
                    "scalar" : 1,
                    "metadata" : {
                      "clipSpeedAttribute" : false,
                      "default-anchor0" : 0.0,
                      "default-anchor1" : 0.0,
                      "default-anchor2" : 0.0,
                      "default-height" : 270.0,
                      "default-rotation0" : 0.0,
                      "default-rotation1" : 0.0,
                      "default-rotation2" : 0.0,
                      "default-scale0" : 1.0,
                      "default-scale1" : 1.0,
                      "default-scale2" : 1.0,
                      "default-shear0" : 0.0,
                      "default-shear1" : 0.0,
                      "default-shear2" : 0.0,
                      "default-stroke-color-blue" : 0.0,
                      "default-stroke-color-green" : 0.0,
                      "default-stroke-color-red" : 1.0,
                      "default-translation0" : 0.0,
                      "default-translation1" : 0.0,
                      "default-translation2" : 0.0,
                      "default-width" : 480.0
                    },
                    "animationTracks" : {

                    }
                  }
                ],
                "transitions" : [
                  {
                    "name" : "Fade",
                    "duration" : 705600000,
                    "leftMedia" : 28,
                    "attributes" : {
                      "bypass" : false,
                      "reverse" : false,
                      "trivial" : false,
                      "useAudioPreRoll" : true,
                      "useVisualPreRoll" : true
                    }

                  }
                ]
              },
              {
                "trackIndex" : 10,
                "medias" : [
                  {
                    "id" : 29,
                    "_type" : "IMFile",
                    "src" : 5,
                    "trackNumber" : 0,
                    "trimStartSum" : 0,
                    "attributes" : {
                      "ident" : "ElementExample3"
                    },
                    "parameters" : {
                      "translation0" : 304.129292929293,
                      "translation1" : -78.5475974375102,
                      "scale0" : 1.2,
                      "scale1" : 1.2,
                      "sourceCrop0" : 0.0,
                      "sourceCrop1" : 0.0,
                      "sourceCrop2" : 0.0,
                      "sourceCrop3" : 0.0,
                      "geometryCrop0" : 0.0,
                      "geometryCrop1" : 0.0,
                      "geometryCrop2" : 0.0,
                      "geometryCrop3" : 0.0
                    },
                    "effects" : [

                    ],
                    "start" : 33327840000,
                    "duration" : 10701600000,
                    "mediaStart" : 0,
                    "mediaDuration" : 1,
                    "scalar" : 1,
                    "metadata" : {
                      "clipSpeedAttribute" : false,
                      "default-height" : 33.0,
                      "default-scale0" : 1.0,
                      "default-scale1" : 1.0,
                      "default-translation0" : -0.5,
                      "default-translation1" : -0.5,
                      "default-translation2" : 0.0,
                      "default-width" : 243.0
                    },
                    "animationTracks" : {

                    }
                  }
                ],
                "transitions" : [
                  {
                    "name" : "Fade",
                    "duration" : 705600000,
                    "rightMedia" : 29,
                    "attributes" : {
                      "bypass" : false,
                      "reverse" : false,
                      "trivial" : false,
                      "useAudioPreRoll" : true,
                      "useVisualPreRoll" : true
                    }

                  },
                  {
                    "name" : "Fade",
                    "duration" : 705600000,
                    "leftMedia" : 29,
                    "attributes" : {
                      "bypass" : false,
                      "reverse" : false,
                      "trivial" : false,
                      "useAudioPreRoll" : true,
                      "useVisualPreRoll" : true
                    }

                  }
                ]
              },
              {
                "trackIndex" : 11,
                "medias" : [
                  {
                    "id" : 30,
                    "_type" : "Callout",
                    "def" : {
                      "kind" : "remix",
                      "shape" : "text",
                      "style" : "basic",
                      "enable-ligatures" : 1.0,
                      "height" : 157.926478775428,
                      "line-spacing" : 0.0,
                      "width" : 206.564213762778,
                      "word-wrap" : 1.0,
                      "horizontal-alignment" : "center",
                      "resize-behavior" : "resizeText",
                      "text" : "?",
                      "vertical-alignment" : "center",
                      "font" : {
                        "color-blue" : 1.0,
                        "color-green" : 1.0,
                        "color-red" : 1.0,
                        "size" : 64.0,
                        "tracking" : 0.0,
                        "name" : "Montserrat",
                        "weight" : "Regular"
                      },
                      "textAttributes" : {
                        "type" : "textAttributeList",
                        "keyframes" : [
                          {
                            "endTime" : 0,
                            "time" : 0,
                            "value" : [{"name":"strikethrough","rangeEnd":1,"rangeStart":0,"value":0,"valueType":"int"},{"name":"fontItalic","rangeEnd":1,"rangeStart":0,"value":0,"valueType":"int"},{"name":"kerning","rangeEnd":1,"rangeStart":0,"value":0,"valueType":"double"},{"name":"underline","rangeEnd":1,"rangeStart":0,"value":0,"valueType":"int"},{"name":"fontName","rangeEnd":1,"rangeStart":0,"value":"Comic Sans MS","valueType":"string"},{"name":"fontSize","rangeEnd":1,"rangeStart":0,"value":500,"valueType":"double"},{"name":"fgColor","rangeEnd":1,"rangeStart":0,"value":"(8,8,163,255)","valueType":"color"},{"name":"fontWeight","rangeEnd":1,"rangeStart":0,"value":400,"valueType":"int"}],
                            "duration" : 0
                          }
                        ]
                      }
                    },
                    "attributes" : {
                      "ident" : "",
                      "autoRotateText" : true
                    },
                    "parameters" : {
                      "translation0" : -456.607271041724,
                      "translation1" : 85.0909090909092,
                      "sourceCrop0" : 0.0,
                      "sourceCrop1" : 0.0,
                      "sourceCrop2" : 0.0,
                      "sourceCrop3" : 0.0,
                      "geometryCrop0" : 0.0,
                      "geometryCrop1" : 0.0,
                      "geometryCrop2" : 0.0,
                      "geometryCrop3" : 0.0
                    },
                    "effects" : [

                    ],
                    "start" : 31963680000,
                    "duration" : 2422560000,
                    "mediaStart" : 117600000,
                    "mediaDuration" : 2422560000,
                    "scalar" : 1,
                    "metadata" : {
                      "clipSpeedAttribute" : false,
                      "default-HAlign" : "center",
                      "default-LineSpace" : 0.0,
                      "default-VAlign" : "center",
                      "default-anchor0" : 0.0,
                      "default-anchor1" : 0.0,
                      "default-anchor2" : 0.0,
                      "default-height" : 250.0,
                      "default-rotation0" : 0.0,
                      "default-rotation1" : 0.0,
                      "default-rotation2" : 0.0,
                      "default-scale0" : 1.0,
                      "default-scale1" : 1.0,
                      "default-scale2" : 1.0,
                      "default-shear0" : 0.0,
                      "default-shear1" : 0.0,
                      "default-shear2" : 0.0,
                      "default-translation0" : 0.0,
                      "default-translation1" : 0.0,
                      "default-translation2" : 0.0,
                      "default-width" : 400.0
                    },
                    "animationTracks" : {

                    }
                  },
                  {
                    "id" : 31,
                    "_type" : "Callout",
                    "def" : {
                      "kind" : "TypeWinSVG",
                      "shape" : "",
                      "style" : "",
                      "DrawTime" : 1.0,
                      "borderColorBlue" : 0.0,
                      "borderColorGreen" : 0.0,
                      "borderColorRed" : 1.0,
                      "borderWidth" : 15.1876345739773,
                      "enable-ligatures" : 0.0,
                      "flipOnXAxis" : 0.0,
                      "flipOnYAxis" : 0.0,
                      "height" : 270.0,
                      "width" : 480.0,
                      "filename" : "C:\\Users\\Sotirios\\AppData\\Local\\TechSmith\\Camtasia Studio\\22.0\\Features\\Tools\\Annotations\\Defaults\\anim_x.svg",
                      "name" : "",
                      "resize-behavior" : "resizeCallout",
                      "xmlContent" : "﻿<?xml version=\"1.0\" encoding=\"utf-8\"?>\n<!DOCTYPE svg PUBLIC \"-//W3C//DTD SVG 1.1//EN\" \"http://www.w3.org/Graphics/SVG/1.1/DTD/svg11.dtd\">\n<svg version=\"1.1\" id=\"Layer_1\" xmlns=\"http://www.w3.org/2000/svg\" xmlns:xlink=\"http://www.w3.org/1999/xlink\" x=\"0px\" y=\"0px\"\n\t width=\"128px\" height=\"109px\" viewBox=\"0 0 128 109\" enable-background=\"new 0 0 128 109\" xml:space=\"preserve\">\n<path fill=\"none\" d=\"M0,0 L100,100 M100,0 L0,100\"/>\n</svg>\n"
                    },
                    "attributes" : {
                      "ident" : "",
                      "autoRotateText" : true
                    },
                    "parameters" : {
                      "translation0" : -353.325164160335,
                      "translation1" : -14.8977882419209,
                      "scale0" : 0.20928842008674,
                      "scale1" : 0.324010756188256,
                      "sourceCrop0" : 0.0,
                      "sourceCrop1" : 0.0,
                      "sourceCrop2" : 0.0,
                      "sourceCrop3" : 0.0,
                      "geometryCrop0" : 0.0,
                      "geometryCrop1" : 0.0,
                      "geometryCrop2" : 0.0,
                      "geometryCrop3" : 0.0
                    },
                    "leftEdgeMods" : [
                      {
                        "group" : "DrawPercentageFade",
                        "duration" : 705600000,
                        "parameters" : [
                          {
                            "name" : "DrawTime",
                              "func" : "FadeInFunc"
                            }
                        ]
                      }
                    ],
                    "effects" : [

                    ],
                    "start" : 34386240000,
                    "duration" : 9643200000,
                    "mediaStart" : 0,
                    "mediaDuration" : 9643200000,
                    "scalar" : 1,
                    "metadata" : {
                      "clipSpeedAttribute" : false,
                      "default-anchor0" : 0.0,
                      "default-anchor1" : 0.0,
                      "default-anchor2" : 0.0,
                      "default-height" : 270.0,
                      "default-rotation0" : 0.0,
                      "default-rotation1" : 0.0,
                      "default-rotation2" : 0.0,
                      "default-scale0" : 1.0,
                      "default-scale1" : 1.0,
                      "default-scale2" : 1.0,
                      "default-shear0" : 0.0,
                      "default-shear1" : 0.0,
                      "default-shear2" : 0.0,
                      "default-stroke-width" : 5.0,
                      "default-translation0" : 0.0,
                      "default-translation1" : 0.0,
                      "default-translation2" : 0.0,
                      "default-width" : 480.0
                    },
                    "animationTracks" : {

                    }
                  }
                ],
                "transitions" : [
                  {
                    "name" : "Fade",
                    "duration" : 352800000,
                    "leftMedia" : 30,
                    "rightMedia" : 31,
                    "attributes" : {
                      "bypass" : false,
                      "reverse" : false,
                      "trivial" : false,
                      "useAudioPreRoll" : true,
                      "useVisualPreRoll" : true
                    }

                  },
                  {
                    "name" : "Fade",
                    "duration" : 705600000,
                    "leftMedia" : 31,
                    "attributes" : {
                      "bypass" : false,
                      "reverse" : false,
                      "trivial" : false,
                      "useAudioPreRoll" : true,
                      "useVisualPreRoll" : true
                    }

                  }
                ]
              },
              {
                "trackIndex" : 12,
                "medias" : [
                  {
                    "id" : 32,
                    "_type" : "Callout",
                    "def" : {
                      "kind" : "remix",
                      "shape" : "text",
                      "style" : "basic",
                      "enable-ligatures" : 1.0,
                      "height" : 157.926478775428,
                      "line-spacing" : 0.0,
                      "width" : 206.564213762778,
                      "word-wrap" : 1.0,
                      "horizontal-alignment" : "center",
                      "resize-behavior" : "resizeText",
                      "text" : "?",
                      "vertical-alignment" : "center",
                      "font" : {
                        "color-blue" : 1.0,
                        "color-green" : 1.0,
                        "color-red" : 1.0,
                        "size" : 64.0,
                        "tracking" : 0.0,
                        "name" : "Montserrat",
                        "weight" : "Regular"
                      },
                      "textAttributes" : {
                        "type" : "textAttributeList",
                        "keyframes" : [
                          {
                            "endTime" : 0,
                            "time" : 0,
                            "value" : [{"name":"strikethrough","rangeEnd":1,"rangeStart":0,"value":0,"valueType":"int"},{"name":"fontItalic","rangeEnd":1,"rangeStart":0,"value":0,"valueType":"int"},{"name":"kerning","rangeEnd":1,"rangeStart":0,"value":0,"valueType":"double"},{"name":"underline","rangeEnd":1,"rangeStart":0,"value":0,"valueType":"int"},{"name":"fontName","rangeEnd":1,"rangeStart":0,"value":"Comic Sans MS","valueType":"string"},{"name":"fontSize","rangeEnd":1,"rangeStart":0,"value":500,"valueType":"double"},{"name":"fgColor","rangeEnd":1,"rangeStart":0,"value":"(8,8,163,255)","valueType":"color"},{"name":"fontWeight","rangeEnd":1,"rangeStart":0,"value":400,"valueType":"int"}],
                            "duration" : 0
                          }
                        ]
                      }
                    },
                    "attributes" : {
                      "ident" : "",
                      "autoRotateText" : true
                    },
                    "parameters" : {
                      "translation0" : -146.688500496293,
                      "translation1" : 50.7434431289988,
                      "sourceCrop0" : 0.0,
                      "sourceCrop1" : 0.0,
                      "sourceCrop2" : 0.0,
                      "sourceCrop3" : 0.0,
                      "geometryCrop0" : 0.0,
                      "geometryCrop1" : 0.0,
                      "geometryCrop2" : 0.0,
                      "geometryCrop3" : 0.0
                    },
                    "effects" : [

                    ],
                    "start" : 32763360000,
                    "duration" : 2352000000,
                    "mediaStart" : 282240000,
                    "mediaDuration" : 2352000000,
                    "scalar" : 1,
                    "metadata" : {
                      "clipSpeedAttribute" : false,
                      "default-HAlign" : "center",
                      "default-LineSpace" : 0.0,
                      "default-VAlign" : "center",
                      "default-anchor0" : 0.0,
                      "default-anchor1" : 0.0,
                      "default-anchor2" : 0.0,
                      "default-height" : 250.0,
                      "default-rotation0" : 0.0,
                      "default-rotation1" : 0.0,
                      "default-rotation2" : 0.0,
                      "default-scale0" : 1.0,
                      "default-scale1" : 1.0,
                      "default-scale2" : 1.0,
                      "default-shear0" : 0.0,
                      "default-shear1" : 0.0,
                      "default-shear2" : 0.0,
                      "default-translation0" : 0.0,
                      "default-translation1" : 0.0,
                      "default-translation2" : 0.0,
                      "default-width" : 400.0
                    },
                    "animationTracks" : {

                    }
                  },
                  {
                    "id" : 33,
                    "_type" : "Callout",
                    "def" : {
                      "kind" : "TypeWinSVG",
                      "shape" : "",
                      "style" : "",
                      "DrawTime" : 1.0,
                      "borderColorBlue" : 0.0,
                      "borderColorGreen" : 0.0,
                      "borderColorRed" : 1.0,
                      "borderWidth" : 15.1876345739773,
                      "enable-ligatures" : 0.0,
                      "flipOnXAxis" : 0.0,
                      "flipOnYAxis" : 0.0,
                      "height" : 270.0,
                      "width" : 480.0,
                      "filename" : "C:\\Users\\Sotirios\\AppData\\Local\\TechSmith\\Camtasia Studio\\22.0\\Features\\Tools\\Annotations\\Defaults\\anim_x.svg",
                      "name" : "",
                      "resize-behavior" : "resizeCallout",
                      "xmlContent" : "﻿<?xml version=\"1.0\" encoding=\"utf-8\"?>\n<!DOCTYPE svg PUBLIC \"-//W3C//DTD SVG 1.1//EN\" \"http://www.w3.org/Graphics/SVG/1.1/DTD/svg11.dtd\">\n<svg version=\"1.1\" id=\"Layer_1\" xmlns=\"http://www.w3.org/2000/svg\" xmlns:xlink=\"http://www.w3.org/1999/xlink\" x=\"0px\" y=\"0px\"\n\t width=\"128px\" height=\"109px\" viewBox=\"0 0 128 109\" enable-background=\"new 0 0 128 109\" xml:space=\"preserve\">\n<path fill=\"none\" d=\"M0,0 L100,100 M100,0 L0,100\"/>\n</svg>\n"
                    },
                    "attributes" : {
                      "ident" : "",
                      "autoRotateText" : true
                    },
                    "parameters" : {
                      "translation0" : -134.937094114177,
                      "translation1" : -18.6869612385772,
                      "scale0" : 0.20928842008674,
                      "scale1" : 0.324010756188256,
                      "sourceCrop0" : 0.0,
                      "sourceCrop1" : 0.0,
                      "sourceCrop2" : 0.0,
                      "sourceCrop3" : 0.0,
                      "geometryCrop0" : 0.0,
                      "geometryCrop1" : 0.0,
                      "geometryCrop2" : 0.0,
                      "geometryCrop3" : 0.0
                    },
                    "leftEdgeMods" : [
                      {
                        "group" : "DrawPercentageFade",
                        "duration" : 705600000,
                        "parameters" : [
                          {
                            "name" : "DrawTime",
                              "func" : "FadeInFunc"
                            }
                        ]
                      }
                    ],
                    "effects" : [

                    ],
                    "start" : 35115360000,
                    "duration" : 8914080000,
                    "mediaStart" : 0,
                    "mediaDuration" : 8914080000,
                    "scalar" : 1,
                    "metadata" : {
                      "clipSpeedAttribute" : false,
                      "default-anchor0" : 0.0,
                      "default-anchor1" : 0.0,
                      "default-anchor2" : 0.0,
                      "default-height" : 270.0,
                      "default-rotation0" : 0.0,
                      "default-rotation1" : 0.0,
                      "default-rotation2" : 0.0,
                      "default-scale0" : 1.0,
                      "default-scale1" : 1.0,
                      "default-scale2" : 1.0,
                      "default-shear0" : 0.0,
                      "default-shear1" : 0.0,
                      "default-shear2" : 0.0,
                      "default-stroke-width" : 5.0,
                      "default-translation0" : 0.0,
                      "default-translation1" : 0.0,
                      "default-translation2" : 0.0,
                      "default-width" : 480.0
                    },
                    "animationTracks" : {

                    }
                  }
                ],
                "transitions" : [
                  {
                    "name" : "Fade",
                    "duration" : 352800000,
                    "leftMedia" : 32,
                    "rightMedia" : 33,
                    "attributes" : {
                      "bypass" : false,
                      "reverse" : false,
                      "trivial" : false,
                      "useAudioPreRoll" : true,
                      "useVisualPreRoll" : true
                    }

                  },
                  {
                    "name" : "Fade",
                    "duration" : 705600000,
                    "leftMedia" : 33,
                    "attributes" : {
                      "bypass" : false,
                      "reverse" : false,
                      "trivial" : false,
                      "useAudioPreRoll" : true,
                      "useVisualPreRoll" : true
                    }

                  }
                ]
              },
              {
                "trackIndex" : 13,
                "medias" : [
                  {
                    "id" : 34,
                    "_type" : "Callout",
                    "def" : {
                      "kind" : "remix",
                      "shape" : "text",
                      "style" : "basic",
                      "enable-ligatures" : 1.0,
                      "height" : 157.926478775428,
                      "line-spacing" : 0.0,
                      "width" : 206.564213762778,
                      "word-wrap" : 1.0,
                      "horizontal-alignment" : "center",
                      "resize-behavior" : "resizeText",
                      "text" : "?",
                      "vertical-alignment" : "center",
                      "font" : {
                        "color-blue" : 1.0,
                        "color-green" : 1.0,
                        "color-red" : 1.0,
                        "size" : 64.0,
                        "tracking" : 0.0,
                        "name" : "Montserrat",
                        "weight" : "Regular"
                      },
                      "textAttributes" : {
                        "type" : "textAttributeList",
                        "keyframes" : [
                          {
                            "endTime" : 0,
                            "time" : 0,
                            "value" : [{"name":"strikethrough","rangeEnd":1,"rangeStart":0,"value":0,"valueType":"int"},{"name":"fontItalic","rangeEnd":1,"rangeStart":0,"value":0,"valueType":"int"},{"name":"kerning","rangeEnd":1,"rangeStart":0,"value":0,"valueType":"double"},{"name":"underline","rangeEnd":1,"rangeStart":0,"value":0,"valueType":"int"},{"name":"fontName","rangeEnd":1,"rangeStart":0,"value":"Comic Sans MS","valueType":"string"},{"name":"fontSize","rangeEnd":1,"rangeStart":0,"value":500,"valueType":"double"},{"name":"fgColor","rangeEnd":1,"rangeStart":0,"value":"(8,8,163,255)","valueType":"color"},{"name":"fontWeight","rangeEnd":1,"rangeStart":0,"value":400,"valueType":"int"}],
                            "duration" : 0
                          }
                        ]
                      }
                    },
                    "attributes" : {
                      "ident" : "",
                      "autoRotateText" : true
                    },
                    "parameters" : {
                      "translation0" : 149.59595959596,
                      "translation1" : -25.8723302968047,
                      "sourceCrop0" : 0.0,
                      "sourceCrop1" : 0.0,
                      "sourceCrop2" : 0.0,
                      "sourceCrop3" : 0.0,
                      "geometryCrop0" : 0.0,
                      "geometryCrop1" : 0.0,
                      "geometryCrop2" : 0.0,
                      "geometryCrop3" : 0.0
                    },
                    "effects" : [

                    ],
                    "start" : 33327840000,
                    "duration" : 2493120000,
                    "mediaStart" : 564480000,
                    "mediaDuration" : 2493120000,
                    "scalar" : 1,
                    "metadata" : {
                      "clipSpeedAttribute" : false,
                      "default-HAlign" : "center",
                      "default-LineSpace" : 0.0,
                      "default-VAlign" : "center",
                      "default-anchor0" : 0.0,
                      "default-anchor1" : 0.0,
                      "default-anchor2" : 0.0,
                      "default-height" : 250.0,
                      "default-rotation0" : 0.0,
                      "default-rotation1" : 0.0,
                      "default-rotation2" : 0.0,
                      "default-scale0" : 1.0,
                      "default-scale1" : 1.0,
                      "default-scale2" : 1.0,
                      "default-shear0" : 0.0,
                      "default-shear1" : 0.0,
                      "default-shear2" : 0.0,
                      "default-translation0" : 0.0,
                      "default-translation1" : 0.0,
                      "default-translation2" : 0.0,
                      "default-width" : 400.0
                    },
                    "animationTracks" : {

                    }
                  },
                  {
                    "id" : 35,
                    "_type" : "Callout",
                    "def" : {
                      "kind" : "TypeWinSVG",
                      "shape" : "",
                      "style" : "",
                      "DrawTime" : 1.0,
                      "borderColorBlue" : 0.0,
                      "borderColorGreen" : 0.0,
                      "borderColorRed" : 1.0,
                      "borderWidth" : 15.1876345739773,
                      "enable-ligatures" : 0.0,
                      "flipOnXAxis" : 0.0,
                      "flipOnYAxis" : 0.0,
                      "height" : 270.0,
                      "width" : 480.0,
                      "filename" : "C:\\Users\\Sotirios\\AppData\\Local\\TechSmith\\Camtasia Studio\\22.0\\Features\\Tools\\Annotations\\Defaults\\anim_x.svg",
                      "name" : "",
                      "resize-behavior" : "resizeCallout",
                      "xmlContent" : "﻿<?xml version=\"1.0\" encoding=\"utf-8\"?>\n<!DOCTYPE svg PUBLIC \"-//W3C//DTD SVG 1.1//EN\" \"http://www.w3.org/Graphics/SVG/1.1/DTD/svg11.dtd\">\n<svg version=\"1.1\" id=\"Layer_1\" xmlns=\"http://www.w3.org/2000/svg\" xmlns:xlink=\"http://www.w3.org/1999/xlink\" x=\"0px\" y=\"0px\"\n\t width=\"128px\" height=\"109px\" viewBox=\"0 0 128 109\" enable-background=\"new 0 0 128 109\" xml:space=\"preserve\">\n<path fill=\"none\" d=\"M0,0 L100,100 M100,0 L0,100\"/>\n</svg>\n"
                    },
                    "attributes" : {
                      "ident" : "",
                      "autoRotateText" : true
                    },
                    "parameters" : {
                      "translation0" : 20.909090909091,
                      "translation1" : -81.0962316778188,
                      "scale0" : 0.20928842008674,
                      "scale1" : 0.324010756188256,
                      "sourceCrop0" : 0.0,
                      "sourceCrop1" : 0.0,
                      "sourceCrop2" : 0.0,
                      "sourceCrop3" : 0.0,
                      "geometryCrop0" : 0.0,
                      "geometryCrop1" : 0.0,
                      "geometryCrop2" : 0.0,
                      "geometryCrop3" : 0.0
                    },
                    "leftEdgeMods" : [
                      {
                        "group" : "DrawPercentageFade",
                        "duration" : 705600000,
                        "parameters" : [
                          {
                            "name" : "DrawTime",
                              "func" : "FadeInFunc"
                            }
                        ]
                      }
                    ],
                    "effects" : [

                    ],
                    "start" : 35820960000,
                    "duration" : 8208480000,
                    "mediaStart" : -305760000,
                    "mediaDuration" : 8208480000,
                    "scalar" : 1,
                    "metadata" : {
                      "clipSpeedAttribute" : false,
                      "default-anchor0" : 0.0,
                      "default-anchor1" : 0.0,
                      "default-anchor2" : 0.0,
                      "default-height" : 270.0,
                      "default-rotation0" : 0.0,
                      "default-rotation1" : 0.0,
                      "default-rotation2" : 0.0,
                      "default-scale0" : 1.0,
                      "default-scale1" : 1.0,
                      "default-scale2" : 1.0,
                      "default-shear0" : 0.0,
                      "default-shear1" : 0.0,
                      "default-shear2" : 0.0,
                      "default-stroke-width" : 5.0,
                      "default-translation0" : 0.0,
                      "default-translation1" : 0.0,
                      "default-translation2" : 0.0,
                      "default-width" : 480.0
                    },
                    "animationTracks" : {

                    }
                  }
                ],
                "transitions" : [
                  {
                    "name" : "Fade",
                    "duration" : 352800000,
                    "leftMedia" : 34,
                    "rightMedia" : 35,
                    "attributes" : {
                      "bypass" : false,
                      "reverse" : false,
                      "trivial" : false,
                      "useAudioPreRoll" : true,
                      "useVisualPreRoll" : true
                    }

                  },
                  {
                    "name" : "Fade",
                    "duration" : 705600000,
                    "leftMedia" : 35,
                    "attributes" : {
                      "bypass" : false,
                      "reverse" : false,
                      "trivial" : false,
                      "useAudioPreRoll" : true,
                      "useVisualPreRoll" : true
                    }

                  }
                ]
              },
              {
                "trackIndex" : 14,
                "medias" : [
                ]
              },
              {
                "trackIndex" : 15,
                "medias" : [
                ]
              },
              {
                "trackIndex" : 16,
                "medias" : [
                ]
              }            ]
          }
        }
      ]
    },
    "trackAttributes" : [
      {
        "ident" : "",
        "audioMuted" : false,
        "videoHidden" : false,
        "magnetic" : false,
        "matte" : 0,
        "solo" : false,
        "metadata" : {
          "IsLocked" : "False",
          "WinTrackHeight" : "56"
        }
      },
      {
        "ident" : "",
        "audioMuted" : false,
        "videoHidden" : false,
        "magnetic" : false,
        "matte" : 0,
        "solo" : false,
        "metadata" : {
          "IsLocked" : "False",
          "WinTrackHeight" : "56"
        }
      },
      {
        "ident" : "",
        "audioMuted" : false,
        "videoHidden" : false,
        "magnetic" : false,
        "matte" : 0,
        "solo" : false,
        "metadata" : {
          "IsLocked" : "False",
          "WinTrackHeight" : "56"
        }
      },
      {
        "ident" : "",
        "audioMuted" : false,
        "videoHidden" : false,
        "magnetic" : false,
        "matte" : 0,
        "solo" : false,
        "metadata" : {
          "IsLocked" : "False",
          "WinTrackHeight" : "56"
        }
      },
      {
        "ident" : "",
        "audioMuted" : false,
        "videoHidden" : false,
        "magnetic" : false,
        "matte" : 0,
        "solo" : false,
        "metadata" : {
          "IsLocked" : "False",
          "WinTrackHeight" : "56"
        }
      },
      {
        "ident" : "",
        "audioMuted" : false,
        "videoHidden" : false,
        "magnetic" : false,
        "matte" : 0,
        "solo" : false,
        "metadata" : {
          "IsLocked" : "False",
          "WinTrackHeight" : "56"
        }
      },
      {
        "ident" : "",
        "audioMuted" : false,
        "videoHidden" : false,
        "magnetic" : false,
        "matte" : 0,
        "solo" : false,
        "metadata" : {
          "IsLocked" : "False",
          "WinTrackHeight" : "56"
        }
      },
      {
        "ident" : "",
        "audioMuted" : false,
        "videoHidden" : false,
        "magnetic" : false,
        "matte" : 0,
        "solo" : false,
        "metadata" : {
          "IsLocked" : "False",
          "WinTrackHeight" : "56"
        }
      },
      {
        "ident" : "",
        "audioMuted" : false,
        "videoHidden" : false,
        "magnetic" : false,
        "matte" : 0,
        "solo" : false,
        "metadata" : {
          "IsLocked" : "False",
          "WinTrackHeight" : "56"
        }
      },
      {
        "ident" : "",
        "audioMuted" : false,
        "videoHidden" : false,
        "magnetic" : false,
        "matte" : 0,
        "solo" : false,
        "metadata" : {
          "IsLocked" : "False",
          "WinTrackHeight" : "56"
        }
      },
      {
        "ident" : "",
        "audioMuted" : false,
        "videoHidden" : false,
        "magnetic" : false,
        "matte" : 0,
        "solo" : false,
        "metadata" : {
          "IsLocked" : "False",
          "WinTrackHeight" : "56"
        }
      },
      {
        "ident" : "",
        "audioMuted" : false,
        "videoHidden" : false,
        "magnetic" : false,
        "matte" : 0,
        "solo" : false,
        "metadata" : {
          "IsLocked" : "False",
          "WinTrackHeight" : "56"
        }
      },
      {
        "ident" : "",
        "audioMuted" : false,
        "videoHidden" : false,
        "magnetic" : false,
        "matte" : 0,
        "solo" : false,
        "metadata" : {
          "IsLocked" : "False",
          "WinTrackHeight" : "56"
        }
      },
      {
        "ident" : "",
        "audioMuted" : false,
        "videoHidden" : false,
        "magnetic" : false,
        "matte" : 0,
        "solo" : false,
        "metadata" : {
          "IsLocked" : "False",
          "WinTrackHeight" : "56"
        }
      },
      {
        "ident" : "",
        "audioMuted" : false,
        "videoHidden" : false,
        "magnetic" : false,
        "matte" : 0,
        "solo" : false,
        "metadata" : {
          "IsLocked" : "False",
          "WinTrackHeight" : "56"
        }
      },
      {
        "ident" : "",
        "audioMuted" : false,
        "videoHidden" : false,
        "magnetic" : false,
        "matte" : 0,
        "solo" : false,
        "metadata" : {
          "IsLocked" : "False",
          "WinTrackHeight" : "56"
        }
      },
      {
        "ident" : "",
        "audioMuted" : false,
        "videoHidden" : false,
        "magnetic" : false,
        "matte" : 0,
        "solo" : false,
        "metadata" : {
          "IsLocked" : "False",
          "WinTrackHeight" : "56"
        }
      }
    ],
    "captionAttributes" : {
      "enabled" : true,
      "fontName" : "Arial",
      "fontSize" : 64,
      "backgroundColor" : [ 0, 0, 0, 191],
      "foregroundColor" : [ 255, 255, 255, 255],
      "lang" : "en",
      "alignment" : 0,
      "defaultFontSize" : true,
      "opacity" : 0.5,
      "backgroundEnabled" : true,
      "backgroundOnlyAroundText" : true
    },
    "gain" : 1.0,
    "legacyAttenuateAudioMix" : false,
    "backgroundColor" : [ 0, 0, 0, 255]
  },
  "metadata" : {
    "AutoSaveFile" : "C:\\Users\\Sotirios\\AppData\\Local\\TechSmith\\Camtasia Studio\\22.0\\Auto-Saves\\Untitled Project128a34cf.autosave.tscproj",
    "CanvasZoom" : 75,
    "Date" : "2022-10-18 01:42:37 PM",
    "Fit" : 0,
    "IsAutoSave" : false,
    "IsStandalone" : true,
    "Language" : "ENU",
    "ProfileName" : "",
    "ProjectThumbnail" : "iVBORw0KGgoAAAANSUhEUgAAAoAAAAFoCAYAAADHMkpRAAAAAXNSR0IArs4c6QAAAARnQU1BAACx\r\njwv8YQUAAAAJcEhZcwAAEOoAABDqAYLTCpgAAB82SURBVHhe7d13kO1lmeBx4x9ma8oqqTKUYVl0\r\nHCSMGQERRdeIjrLjrmlFRtZ1XUdycCQISjCBxCGIIijIMOoIKAjC6ICBIShZQETizTnfd+t9T5++\r\n3f1cEO7o7vP+/HyrPoX3uX1Pn3yePr/u9hGPeMQjCgAAf1bCAACAYQsDAACGLQwAABi2MAAAYNjC\r\nAACAYQsDAACGLQwAABi2MAAAYNjCAACAYQsDAACGLQwAABi2MAAAYNjCAACAYQsDAACGLQwAABi2\r\nMAAAYNjCAACAYQsDAACGLQwAABi2MAAAYNjCAACAYQsDAACGLQwAABi2MAAAYNjCAACAYQsDAACG\r\nLQwAABi2MAAAYNjCAACAYQsDAACGLQwAABi2MAAAYNjCAACAYQsDAACGLQwAABi2MAAAYNjCAACA\r\nYQsDAACGLQwAABi2MAAAYNjCAACAYQsDAACGLQwAABi2MAAAYNjCAACAYQsDAACGLQwAABi2MAAA\r\nYNjCAACAYQsDAACGLQwAABi2MAAAYNjCAACAYQsDAACGLQwAABi2MAAAYNjCAACAYQsDAACGLQxI\r\naKONNipbbrll2XzzzQEgpcc97nHh9Yu0woCEDjjggCJJUubqEjjz9Yu0woCELICSpOxZALsSBiRk\r\nAZQkZc8C2JUwICELoCQpexbAroQBCVkAJUnZswB2JQxIyAIoScqeBbArYUBCFkBJUvYsgF0JAxKy\r\nAEqSsmcB7EoYkJAFUJKUPQtgV8KAhCyAkqTsWQC7EgYkZAGUJGXPAtiVMCAhC6AkKXsWwK6EAQlZ\r\nACVJ2bMAdiUMSMgCKEnKngWwK2FAQhZASVL2LIBdCQMSsgBKkrJnAexKGJCQBVCSlD0LYFfCgIQs\r\ngJKk7FkAuxIGJGQBlCRlzwLYlTAgIQugJCl7FsCuhAEJWQAlSdmzAHYlDEjIAihJyp4FsCthQEIW\r\nQElS9iyAXQkDErIASpKyZwHsShiQkAVQkpQ9C2BXwoCELICSpOxZALsSBiT057QAHnTQQWW//fab\r\nOZYkJc8C2JUwIKFMC+A555xTPvzhD5edd965fOhDHyq77LJLOeSQQ8ovf/nLmR+6Qb3pTW8q2267\r\n7cyxJCl5FsCuhAEJZVoAt9566/K4xz2uvP3tb2922GGH8vSnP72dzz/GO3f1NF//+tfPHEuSkmcB\r\n7EoYkFCmBXCrrbYqb3zjG6fNFi9eXHbbbbd2Xs8888xpf/dwswBKUp9ZALsSBiSUaQF89atf3d71\r\nm9ny5cvLM57xjLbA/UeyAEpSn1kAuxIGJNTDAlh76Utf2t4hXF/nnntu+eAHP9i+x+/9739/+/P6\r\nerAF8A+dxsUXX1x23333smDBgmnzcVdffXV7p3L27Nntz6tXry4XXHBB+djHPlbe8pa3lLe97W3t\r\nh1Duuuuumf+0XHXVVZO3wy233FI+8YlPtHdCP/CBD5RLL7105odPdtttt5X999+/nf473vGOcthh\r\nh6339Gt/6PJJUuYsgF0JAxLKtgC+4Q1vmDkuc+bMKU95ylPKrrvuOm1e3xncaaedymMf+9jy7ne/\r\nu+y5555twamXq/4QyZo1a6Z9/PoWwId6GhdeeGGbnXXWWdP+/bi6VG200UZlyZIl7c/1tJ785Ce3\r\n5WyPPfYoH/nIR8oTn/jE8pznPKctblM79dRTy9Oe9rRy9NFHt9N485vf3P7Nlltu2T7nt771rWkf\r\nX7vooovKU5/61PLCF76wfPzjHy/ve9/72vdLVtdee+3kxz3UyydJmbMAdiUMSCjzArh27dq2LNWF\r\nqC5T11133bSP32uvvdpiU9+dm1pd0uplO+WUU6bN17cAPtTTWLlyZVu26jt5M5s7d25b4MY/qLJs\r\n2bK2zNV386Z2zTXXlMc85jFl7733njav39tYP9df/MVflG9/+9uT8/ou4mtf+9ryghe8oC1y4+67\r\n77626NXzsmrVqsn5vHnz2ruHP/jBDyZnD/XySVLmLIBdCQMSyrQA1mXn8Y9/fHnVq15VXvnKV7aF\r\nq77z97rXva4dYp3avffe25bCAw88cNp8XD2Eus0220ybzVwAH+5pfOYzn2k/pXznnXdO+7i6tD3q\r\nUY+a9s7bA7X99tu3dwWndsYZZ7TbYn3vLtZDtfXvrrzyysnZMcccUx796EeHBXNmD/fySVLWLIBd\r\nCQMSyrQAvuY1rynPetaz2jtp9RBoXQjreazfWzez8847r/3dJZdcUlasWFEWLlw4qR7WrO+EPfOZ\r\nz2zvxo2buQA+3NO46aab2qJ3/PHHT55GrX7/XV1YH0rvec97wvcynn766eVJT3rSer9/ry6V9Tz+\r\n8Ic/nJzVQ7qbbbbZtI9bXw/38klS1iyAXQkDEsq0ANbFqH5/2tTqu131fJ5wwgnT5ieeeGKb14Xx\r\nec97Xnnuc5876fnPf377frs6n/pDGzMXwA05je22264dqh539913t+Vt5lJYq4tX/b7F+g5mXdhe\r\n9KIXtXcQ62I7tboA1s91xx13TJvX6mHv+m7f1MO69R3Sme8irq8NuXySlDELYFfCgIQyLYAP9FPA\r\n9R22+k7VokWLJmfHHXdcO/918arvjtV3u6Y6//zzy69//etppzNzAdyQ0zjttNPau4DXX399+3P9\r\nHrp6mLUuglOr72LWj6vfv3jkkUeWr371q+1Q78te9rJw2PXBFsD6+esCOPUdwHoaD2UB3JDLJ0kZ\r\nswB2JQxIqIcF8LLLLmvndeovgh5/b9zll18+7WMfrJkL4Iacxv3339++L7F+P2Ctfk9fPSQ7tSuu\r\nuKKd7uGHHz5tXqu/2qW+gze1h7sAvvWtby1bbLHFtI9bXxty+SQpYxbAroQBCfWwANafht10003b\r\n4ddx9aeD60/Ujhexh9LMBXBDTqNWf+VKfTKqP4RRD/9+//vfn/b39XB1vW5n/rqX2jvf+c71fg/g\r\nw1kA621Wz/ftt98+7WPH1Z+erm3o5ZOkbFkAuxIGJNTDAlj7/Oc/387v1J+0rYvYE57whPKLX/xi\r\n2sfWfvvb34afkp25ANYe7mnU6u8ErD+t/K53vatsvPHGk7/7b1xd1up5/cY3vjFtfuyxx7b5w/ke\r\nwPUtgDfccEObvfe9751c9mr1EPknP/nJcvbZZ0/ONuTySVK2LIBdCQMSyrQAvuQlLynbbrvtzHGr\r\nLkePfOQj2y89Hjdr1qy2NNbfc1ffWdt3333bTwzXX29Sl55DDz102mms79eePNzTqNXfyVd/N1+9\r\n/vbZZ5+Zf91+Z2D99/V7AHfZZZf2a1jqTzhvsskm7fDvy1/+8mkfX7+vsC5063tH71e/+lX7PPX7\r\n9aY2/uGY+qRYf9ffzjvvXJ797Ge33w849VfGbMjlk6RsWQC7EgYklGkBPOqoo9b707TjvvzlLzdT\r\nq7/C5KSTTio77rhjW6zqT9x+9KMfLd/73vfCrzepH1ffhZvZwzmNceecc077f/dY32He2vz589v/\r\nNVv9qea6gNVf/lyXsfru4Ze+9KVpH1sXtvprb+ovcp5Z/V1+9de11F9BM7P6vZH1/4HkFa94RVvo\r\n6ue75557Zn7YBl0+ScqUBbArYUBCmRZASZLWlwWwK2FAQhZASVL2LIBdCQMSsgBKkrJnAexKGJCQ\r\nBVCSlD0LYFfCgIQsgJKk7FkAuxIGJGQBlCRlzwLYlTAgIQugJCl7FsCuhAEJWQAlSdmzAHYlDEjI\r\nAihJyp4FsCthQEIWQElS9iyAXQkDErIASpKyZwHsShiQkAVQkpQ9C2BXwoCELICSpOxZALsSBiRk\r\nAdS01qwua1csGVm1fObfStL/lyyAXQkDEvpTLoBrly4oq+66rqy88dKy4przy/Kfn12WX/HNYNkV\r\nZ5blV55bVlx7QVlx/cVl5W+umHD5lP894daflVV331BW33NjWX3fb8qaOb8ra+bfW9YsnlPWLl9c\r\nyppVM89Gqy4zbalZOr+sWTSrrJl3V/u3q++9ZXQeb/1ZWXH9JaPz8KsflOX//p3p5/PnZ4/+buy6\r\ni9adp9t+MTo/Y/fePDpfM9TPtfru8cfdVFbddX37vOHy3XX99MtXLbi3rFk0u6xZPHfdgrZiSbvc\r\nbT7v7tHnuP/Wsur317XrbsWvLyzL//27Zdnl3yhLLzmhLPnBF8vi7x5SFp29T1l05m5l4Vd3LQtP\r\n/nCZf8zfjhz7t2X+V95d5n/p7SNHvXPd3x3zX8uCkz5UFn79f5dFZ+3TTmfphUe362bFdT8qq353\r\nTVk9+46ydvHctkT+MVu7akW7/PU6W3nLv7XbZumlJ5elFx9fllzwxbL4e58tS847oiy9+ISy7PIz\r\nyoprziurbr+yrJ51e1mz8P7R9fNg6sf8wdtrPWb9Nvyb9u9m31FW33PzjI+/qay64+rp9+l6n7vh\r\nx2XFtedPv289kBsuaf+uXdf1si24r6xdtvA/dH3Xx0V9PNTTW3XHVe2+X6/DpT86tiz+l8PK4nM+\r\nVRZ9a6+y6Ky9R761V1n8zweVJd8/oiz90XFl2U+/PvHYOL+svPmnZWW93u+5qayePb5u7lx3G8y/\r\nZ911dN+t7bpdefsvy8qb/rVdvuW/OKcs+7fT2+0607KfnNaeI1beeFm7f7fTqY/5VStmXqQ/3PiL\r\nnGULR+erPrYmb7ebpt9u9fa/95ZwG6+Z+/uJ+8+ssmbunesu16zfTt7eq+++oay89efxOSy4vN03\r\nRv+m3q9uH51efUyPH/P1vM6/tz2+2/V22y/KihvrfWfd/WPlzT9pt2E7nXtvHp1Ovc4XzS5rly8q\r\na1cuLWXt2pnXRlm7cuK5cZqlE9fPrPh4qerln3mdzLlzw26Ph5gFsCthQEJ/ygVw4WkfLbP32qTM\r\n3usFZfae/7nM3v35ZfZuzyuzd3tumb3780Z/rvbcePRxe7+wzN7nRWXOfi8uc/bfbPTffTcts/f9\r\nqzJ7n78c/X09rfF/68f+w5Zl7kGvKHMP2abMO/z1Zd4X3lLmH/2usuAfP1gWHP/eMv/L7yjzj/qb\r\nMu+Lby3zPv/mMu+IN5R5n9u+zD1k6zL34Fe1fz9n/81Hn2u/Tcucff9qZJ8XjT7nhDnV+O+aTSf+\r\nTbVZmfOpzUfq+f7U5mXuga+Y8PIy94CXlTnVfi8us/eeeTk2GV03Tb2u6vUw8TnraR/wsvbv535m\r\n6zL3s9uVeYdtP7ocY/WyfHa7Mvczr26fr12e/TZt183k6e+x8cR1PeU6r/b4T+v+Wz+m3g57v7DM\r\n+dQWo/P76b8enc6k0Xmvl3/ydOv5Ht9un35JOy91eayL5aJv71eWnH9kWXbpSWVZXfQvP2P0Av/j\r\nE8uSC75QFp29b1n4tf9VFpy0c1l4yi5l4Vf/Z1n0jb8vi765e1l0xifbsln/bv6XdyxzD33N9Ms2\r\n7XqbUC9H/W+7b/zl6L5xyDZl7qHbTvfZ10yxXTvtydvroFdOmrxvPID28Qe/KjroFevuU/X+O77u\r\nxo+DsfGfx9d9M3E5pt5G478fX656//v0S9v5nvf5N7X7+8KTdy6Lztx9tKB95+DRUnz+58vSi48r\r\nS+oi991DRr7zmbLoW3u25X/Bcf+tPV7qdVIv6+g8Trm/tM891cYTJv48/pjw+N20zDngpaP7ftWu\r\n8+3K3IO3Gt2XD3z56D5WH0OT96sp18XU+2j4HPXyb9pOo97353/xbWXBse8pC05434T3lwX/+D/K\r\nwlP/bvTFSr2sX/tY+3N9Tmhf4Bz1zsnngnbbH7xVu++262D8+Gzq/66Pw9HlmXwsHviy0X3kc68d\r\nqZer3fZbjR6D9bKNhftNfX7YYvScMfn8MUW9bT+15eixVK+7+rg+ZOv2uG/3yf03G52v9V1X7X4y\r\ner5tz1f7vXjiNLYqcz+3fZl3+A7t+pr8Au/LO7bnx3ofmnfkG8u8I//L6H/X6+YLb25/rpevXs/z\r\nDnvdFNuPLuv4sTLxPFcvX13U/1RZALsSBiT0p1wA6wtPfbJty8AZnyyL/+nTbSFoX9FfdkpZ9pOv\r\njd5du+a8suLXF7V3Q9o7HHdd176KHr1D9vP2Vf/4HYL2juG/ntbefajqOz9TX9zai98/H1wWn3vg\r\n6F2uk3cu84/+m/bE1p6s65NoewIevThPXfpGS9PoSX/q8jdpvJhNXQSnLoH1Cb6+8NUXg0O3HT1Z\r\nfuHN7Um2vtguPPUjZdE39yiLv3doWXrRMe3yL7vs1NGL9AVfaC/a9TqqL+LtReuUXUbvvrUn6brw\r\nTVyGmQtM1Z6ox0/W9cn+9W3pbU/0x+xU5h/7nrLwlL9rL/xtUajv5py9b1n8L58ri//pH9qfF57+\r\n8Yml4K2jF8bxEjR+MWuXbau2jLbLdvgOo89Rl+z6DuFx/320yJ28c3u3cMGJH2wvMvW8tEXskK1H\r\nL6T1NKtP//XohbcuM/WFtS7l9TLUF+Z62dqisPm667levxOLdntha+fl1etemOp11F7gdmznZ/5X\r\ndhq94M9QL9/ki9zhO4wW6/EiPXUBrEtweAFfdx7ai/l6tAWhna/t2/VTF492/z/3gMmlbOmPT2rL\r\ncHDFmWXppSeN7t/1Hc7zjmz36Xq/actw/WLmiDe202/XYb0Pj++7k/fTiQWmLgL1uquLcPsiYmKZ\r\nqLfbEW8cqbdfu152Gl1nkybe9Z2437aF8fj3Tfm7de8MT1PPX71+v/CWdcZfrEyd1Y+pX5RN0c7H\r\n1NOu70iPv3j74tsmTHx8u49MLO/jxb4tcnVRe+nov+2+tU67DiY+dnR/edPosXniB8rCr3+8vdvZ\r\nHoPNoe3xUR8r7bKf9KHRdVSXx3r+j9hhdFpt4atfmIyWt8nnkLqs1+t/fH+Z+GJivJxNPo/Uf/ep\r\nLUb3lyPe0C5vPT+LTv8/o+fLC77Y7i/LLju5LPvp19r9o77rOrp/jO4j60zMJp4bm4uObc81Sy/6\r\nSll6YXV0WfLDo8ri705cvm/8fXteqLdzfdy0BbB9gbzN6DFWv5hpX3hNWVLbfXzii6X6GJx4zNaF\r\ncfnV35/5MvBHywLYlTAgoT/lApinte2QRjtcOvf37dDqqjuvHR1+ufmno0Mo9bDvleeGw9PBjEPB\r\n7bBXPZ3bfzk6fHP/raPDIQvuGx26Wb6klNXrPyz9kFu9anRYZvnieCjmgbRD4qNDOes77PNgtUPL\r\n9bD61EOZ9bKND0nXQ14LZ607HP0HDvvU89HOU/03Uw6XhUNqC2e1Q/Tt8NOSeWXN3LvK6vtvi4dh\r\n2/V827rzMnGYqh6yaudn5bKZZ2Fa9e8nD3ONvyWgnb/ph4LX+7kfinpouB0inDW6/v+YrVlV1i6Z\r\n376Fod4eD3r+pt5m9Vsept0vxt/n+eC33cNufF/dAOs9lL16Zfi4cLuN1fvszPvVtPvYxP223i5L\r\n5j3w53ywxpevfv76GG+Hs39TVv3u6tGh7GvOK8t/dlb7ArcuXkvqF1gTS2Vd5kfL3Kll+c/Pat8W\r\nU7+lod5O9f5Sb9cH+haW/ydNHBqvj+upj4V4P7u5HS6ffNzW67M+blf+ab9n2ALYlTAgoT+PBVCS\r\n1HMWwK6EAQlZACVJ2bMAdiUMSMgCKEnKngWwK2FAQhZASVL2LIBdCQMSsgBKkrJnAexKGJCQBVCS\r\nlD0LYFfCgIQsgJKk7FkAuxIGJGQBlCRlzwLYlTAgIQugJCl7FsCuhAEJWQAlSdmzAHYlDEjIAihJ\r\nyp4FsCthQEIWQElS9iyAXQkDErIASpKyZwHsShiQkAVQkpQ9C2BXwoCELICSpOxZALsSBiRkAZQk\r\nZc8C2JUwICELoCQpexbAroQBCVkAJUnZswB2JQxIyAIoScqeBbArYUBCFkBJUvYsgF0JAxKyAEqS\r\nsmcB7EoYkJAFUJKUPQtgV8KAhCyAkqTsWQC7EgYkZAGUJGXPAtiVMCAhC6AkKXsWwK6EAQlZACVJ\r\n2bMAdiUMSMgCKEnKngWwK2FAQhZASVL2LIBdCQMSsgBKkrJnAexKGJCQBVCSlD0LYFfCgIQsgJKk\r\n7FkAuxIGJGQBlCRlzwLYlTAgIQugJCl7FsCuhAEJWQAlSdmzAHYlDEjIAihJyp4FsCthQEIWQElS\r\n9iyAXQkDErIASpKyZwHsShiQkAVQkpQ9C2BXwoCELICSpOxZALsSBiRkAZQkZc8C2JUwICELoCQp\r\nexbAroQBCVkAJUnZswB2JQxIyAIoScqeBbArYUBCFkBJUvYsgF0JAxKyAEqSsmcB7EoYkJAFUJKU\r\nPQtgV8KAhCyAkqTsWQC7EgYkZAGUJGXPAtiVMCAhC6AkKXsWwK6EAQlZACVJ2bMAdiUMSMgCKEnK\r\nngWwK2FAQhZASVL2LIBdCQMSsgBKkrJnAexKGJCQBVCSlD0LYFfCgIQsgJKk7FkAuxIGJGQBlCRl\r\nzwLYlTAgIQugJCl7FsCuhAEJWQAlSdmzAHYlDEjIAihJyp4FsCthQEIWQElS9iyAXQkDErIASpKy\r\nZwHsShiQkAVQkpQ9C2BXwoCELICSpOxZALsSBiRkAZQkZc8C2JUwICELoCQpexbAroQBCVkAJUnZ\r\nswB2JQxIyAIoScqeBbArYUBCFkBJUvYsgF0JAxKyAEqSsmcB7EoYkJAFUJKUPQtgV8KAhCyAkqTs\r\nWQC7EgYkZAGUJGXPAtiVMCAhC6AkKXsWwK6EAQlZACVJ2bMAdiUMSMgCKEnKngWwK2FAQhZASVL2\r\nLIBdCQMSsgBKkrJnAexKGJCQBVCSlD0LYFfCgIQsgJKk7FkAuxIGJGQBlCRlzwLYlTAgIQugJCl7\r\nFsCuhAEJWQAlSdmzAHYlDEjIAihJyp4FsCthQEIWQElS9iyAXQkDErIASpKyZwHsShiQkAVQkpQ9\r\nC2BXwoCELICSpOxZALsSBiRkAZQkZc8C2JUwICELoCQpexbAroQBCVkAJUnZswB2JQxIyAIoScqe\r\nBbArYUBCFkBJUvYsgF0JAxKyAEqSsmcB7EoYkJAFUJKUPQtgV8KAhCyAkqTsWQC7EgYkZAGUJGXP\r\nAtiVMCAhC6AkKXsWwK6EAQlZACVJ2bMAdiUMSMgCKEnKngWwK2FAQhZASVL2LIBdCQMSsgBKkrJn\r\nAexKGJCQBVCSlD0LYFfCgIQsgJKk7FkAuxIGJGQBlCRlzwLYlTAgIQugJCl7FsCuhAEJWQAlSdmz\r\nAHYlDEjIAihJyp4FsCthQEIWQElS9iyAXQkDErIASpKyZwHsShiQkAVQkpQ9C2BXwoCELICSpOxZ\r\nALsSBiRkAZQkZc8C2JUwICELoCQpexbAroQBCVkAJUnZswB2JQxIyAIoScqeBbArYUBCFkBJUvYs\r\ngF0JAxKyAEqSsmcB7EoYkJAFUJKUPQtgV8KAhCyAkqTsWQC7EgYkZAGUJGXPAtiVMCAhC6AkKXsW\r\nwK6EAQlZACVJ2bMAdiUMSMgCKEnKngWwK2FAQhZASVL2LIBdCQMSsgBKkrJnAexKGJCQBVCSlD0L\r\nYFfCgIQsgJKk7FkAuxIGJGQBlCRlzwLYlTAgIQugJCl7FsCuhAEJWQAlSdmzAHYlDEjIAihJyp4F\r\nsCthQEIWQElS9iyAXQkDErIASpKyZwHsShiQkAVQkpQ9C2BXwoCELICSpOxZALsSBiRkAZQkZc8C\r\n2JUwICELoCQpexbAroQBCVkAJUnZswB2JQxIyAIoScqeBbArYUBCFkBJUvYsgF0JAxKyAEqSsmcB\r\n7EoYkJAFUJKUPQtgV8KAhCyAkqTsWQC7EgYkZAGUJGXPAtiVMCAhC6AkKXsWwK6EAQlZACVJ2bMA\r\ndiUMSMgCKEnKngWwK2FAQhZASVL2LIBdCQMSsgBKkrJnAexKGJCQBVCSlD0LYFfCgIQsgJKk7FkA\r\nuxIGJGQBlCRlzwLYlTAgIQugJCl7FsCuhAEJWQAlSdmzAHYlDEjIAihJyp4FsCthQEIWQElS9iyA\r\nXQkDErIASpKyZwHsShiQkAVQkpQ9C2BXwoCELICSpOxZALsSBiRkAZQkZc8C2JUwICELoCQpexbA\r\nroQBCVkAJUnZswB2JQxIyAIoScqeBbArYUBCFkBJUvYsgF0JAxKyAEqSsmcB7EoYkJAFUJKUPQtg\r\nV8KAhCyAkqTsWQC7EgYkZAGUJGXPAtiVMCAhC6AkKXsWwK6EAQlZACVJ2bMAdiUMSMgCKEnKngWw\r\nK2FAQhZASVL2LIBdCQMSsgBKkrJnAexKGJCQBVCSlD0LYFfCgIQsgJKk7FkAuxIGJGQBlCRlzwLY\r\nlTAgIQugJCl7FsCuhAEJHXzwwTMfZ5IkpWqLLbYIr1+kFQYktOuuu5Ybb7yxXHXVVQCQytVXX93+\r\nu8kmm4TXL9IKAwAAhi0MAAAYtjAAAGDYwgAAgGELAwAAhi0MAAAYtjAAAGDYwgAAgGELAwAAhi0M\r\nAAAYtjAAAGDYwgAAgGELAwAAhi0MAAAYtjAAAGDYwgAAgGELAwAAhi0MAAAYtjAAAGDYwgAAgGEL\r\nAwAAhi0MAAAYtjAAAGDYwgAAgGELAwAAhi0MAAAYtjAAAGDYwgAAgGELAwAAhi0MAAAYtjAAAGDY\r\nwgAAgGELAwAAhi0MAAAYtjAAAGDYwgAAgGELAwAAhi0MAAAYtjAAAGDYwgAAgGELAwAAhi0MAAAY\r\ntjAAAGDYwgAAgGELAwAAhi0MAAAYtjAAAGDYwgAAgGELAwAAhi0MAAAYtjAAAGDYwgAAgGELAwAA\r\nhi0MAAAYtjAAAGDYwgAAgGELAwAAhi0MAAAYtjAAAGDYwgAAgAH7v4Q15zzmWonSAAAAAElFTkSu\r\nQmCC",
    "RulerShowing" : false,
    "Title" : "Relevance",
    "audioNarrationNotes" : "",
    "calloutStyle" : "Basic"
  }
}
